%TF.GenerationSoftware,KiCad,Pcbnew,8.0.6*%
%TF.CreationDate,2024-12-14T18:37:53+02:00*%
%TF.ProjectId,Control_PCB,436f6e74-726f-46c5-9f50-43422e6b6963,rev?*%
%TF.SameCoordinates,Original*%
%TF.FileFunction,Plated,1,2,PTH,Drill*%
%TF.FilePolarity,Positive*%
%FSLAX46Y46*%
G04 Gerber Fmt 4.6, Leading zero omitted, Abs format (unit mm)*
G04 Created by KiCad (PCBNEW 8.0.6) date 2024-12-14 18:37:53*
%MOMM*%
%LPD*%
G01*
G04 APERTURE LIST*
%TA.AperFunction,ViaDrill*%
%ADD10C,0.700000*%
%TD*%
%TA.AperFunction,ComponentDrill*%
%ADD11C,0.700000*%
%TD*%
%TA.AperFunction,ComponentDrill*%
%ADD12C,0.800000*%
%TD*%
%TA.AperFunction,ComponentDrill*%
%ADD13C,0.900000*%
%TD*%
%TA.AperFunction,ComponentDrill*%
%ADD14C,0.950000*%
%TD*%
%TA.AperFunction,ComponentDrill*%
%ADD15C,1.000000*%
%TD*%
%TA.AperFunction,ComponentDrill*%
%ADD16C,1.016000*%
%TD*%
%TA.AperFunction,ComponentDrill*%
%ADD17C,1.100000*%
%TD*%
%TA.AperFunction,ComponentDrill*%
%ADD18C,1.520000*%
%TD*%
%TA.AperFunction,ViaDrill*%
%ADD19C,3.000000*%
%TD*%
G04 APERTURE END LIST*
D10*
X68220000Y-103369000D03*
X72000000Y-104100000D03*
X74000000Y-104768000D03*
X75300000Y-126700000D03*
X75470000Y-57410000D03*
X76000000Y-90600000D03*
X76600000Y-85200000D03*
X76600000Y-95430000D03*
X80900000Y-103000000D03*
X82390000Y-110310000D03*
X83900000Y-119600000D03*
X84599000Y-115316916D03*
X85440000Y-93390000D03*
X85609968Y-123532066D03*
X87280000Y-104350000D03*
X90070000Y-104360000D03*
X90070000Y-109270000D03*
X91990000Y-120030000D03*
X99270000Y-90126000D03*
X99469999Y-99457158D03*
X100200000Y-86900000D03*
X100823458Y-102855458D03*
X101800000Y-80200000D03*
X105500000Y-86900000D03*
X110700000Y-97000000D03*
X111760000Y-78232000D03*
X113400000Y-99600000D03*
X120650000Y-69280000D03*
X128339021Y-61838000D03*
X139921099Y-58561886D03*
X175340000Y-126490000D03*
D11*
%TO.C,R4*%
X87630000Y-76200000D03*
X95250000Y-76200000D03*
%TO.C,R5*%
X98806000Y-76200000D03*
%TO.C,R1*%
X103180000Y-110900000D03*
%TO.C,R2*%
X103180000Y-114800000D03*
%TO.C,R3*%
X103180000Y-118700000D03*
%TO.C,R5*%
X106426000Y-76200000D03*
%TO.C,R1*%
X110800000Y-110900000D03*
%TO.C,R2*%
X110800000Y-114800000D03*
%TO.C,R3*%
X110800000Y-118700000D03*
D12*
%TO.C,U5*%
X72363762Y-85108000D03*
X72363762Y-87648000D03*
X72363762Y-90188000D03*
X72363762Y-92728000D03*
X72363762Y-95268000D03*
X72363762Y-97808000D03*
X72363762Y-100348000D03*
%TO.C,U10*%
X72384000Y-107653000D03*
X72384000Y-110193000D03*
X72384000Y-112733000D03*
X72384000Y-115273000D03*
X72384000Y-117813000D03*
X72384000Y-120353000D03*
X72384000Y-122893000D03*
%TO.C,U5*%
X79983762Y-85108000D03*
X79983762Y-87648000D03*
X79983762Y-90188000D03*
X79983762Y-92728000D03*
X79983762Y-95268000D03*
X79983762Y-97808000D03*
X79983762Y-100348000D03*
%TO.C,U10*%
X80004000Y-107653000D03*
X80004000Y-110193000D03*
X80004000Y-112733000D03*
X80004000Y-115273000D03*
X80004000Y-117813000D03*
X80004000Y-120353000D03*
X80004000Y-122893000D03*
%TO.C,Q1*%
X87376000Y-69088000D03*
%TO.C,U11*%
X87884000Y-107653000D03*
X87884000Y-110193000D03*
X87884000Y-112733000D03*
X87884000Y-115273000D03*
X87884000Y-117813000D03*
X87884000Y-120353000D03*
X87884000Y-122893000D03*
%TO.C,U7*%
X87983762Y-85108000D03*
X87983762Y-87648000D03*
X87983762Y-90188000D03*
X87983762Y-92728000D03*
X87983762Y-95268000D03*
X87983762Y-97808000D03*
X87983762Y-100348000D03*
%TO.C,Q1*%
X89916000Y-69088000D03*
X92456000Y-69088000D03*
%TO.C,U11*%
X95504000Y-107653000D03*
X95504000Y-110193000D03*
X95504000Y-112733000D03*
X95504000Y-115273000D03*
X95504000Y-117813000D03*
X95504000Y-120353000D03*
X95504000Y-122893000D03*
%TO.C,U7*%
X95603762Y-85108000D03*
X95603762Y-87648000D03*
X95603762Y-90188000D03*
X95603762Y-92728000D03*
X95603762Y-95268000D03*
X95603762Y-97808000D03*
X95603762Y-100348000D03*
%TO.C,Q2*%
X97536000Y-69088000D03*
X100076000Y-69088000D03*
X102616000Y-69088000D03*
%TO.C,U9*%
X103124000Y-99568000D03*
X103124000Y-102108000D03*
X103124000Y-104648000D03*
X103124000Y-107188000D03*
X110744000Y-99568000D03*
X110744000Y-102108000D03*
X110744000Y-104648000D03*
X110744000Y-107188000D03*
D13*
%TO.C,J34*%
X118477365Y-71312000D03*
%TO.C,J35*%
X118477365Y-73812000D03*
%TO.C,J36*%
X118477365Y-76312000D03*
%TO.C,J37*%
X118477365Y-78812000D03*
%TO.C,J38*%
X118477365Y-81312000D03*
%TO.C,J39*%
X118477365Y-83812000D03*
%TO.C,J40*%
X118477365Y-86312000D03*
%TO.C,J41*%
X118477365Y-88812000D03*
%TO.C,J42*%
X118477365Y-91312000D03*
%TO.C,J43*%
X118477365Y-93812000D03*
%TO.C,J44*%
X118477365Y-96312000D03*
%TO.C,J45*%
X118477365Y-98812000D03*
%TO.C,J46*%
X118477365Y-101312000D03*
%TO.C,J47*%
X118477365Y-103812000D03*
%TO.C,J48*%
X118477365Y-106312000D03*
%TO.C,J49*%
X118477365Y-108812000D03*
%TO.C,J50*%
X118477365Y-111312000D03*
%TO.C,J51*%
X118477365Y-113812000D03*
%TO.C,A1*%
X126464143Y-71027000D03*
X126464143Y-73567000D03*
X126464143Y-76107000D03*
X126464143Y-78647000D03*
X126464143Y-81187000D03*
X126464143Y-83727000D03*
X126464143Y-86267000D03*
X126464143Y-88807000D03*
X126464143Y-91347000D03*
X126464143Y-93887000D03*
X126464143Y-96427000D03*
X126464143Y-98967000D03*
X126464143Y-101507000D03*
X126464143Y-104047000D03*
X126464143Y-106587000D03*
X126464143Y-109127000D03*
X126464143Y-111667000D03*
X126464143Y-114207000D03*
X129004143Y-71027000D03*
X129004143Y-73567000D03*
X129004143Y-76107000D03*
X129004143Y-78647000D03*
X129004143Y-81187000D03*
X129004143Y-83727000D03*
X129004143Y-86267000D03*
X129004143Y-88807000D03*
X129004143Y-91347000D03*
X129004143Y-93887000D03*
X129004143Y-96427000D03*
X129004143Y-98967000D03*
X129004143Y-101507000D03*
X129004143Y-104047000D03*
X129004143Y-106587000D03*
X129004143Y-109127000D03*
X129004143Y-111667000D03*
X129004143Y-114207000D03*
X131798143Y-119287000D03*
%TO.C,J33*%
X131984143Y-124424000D03*
%TO.C,A1*%
X134338143Y-119287000D03*
%TO.C,J32*%
X134484143Y-124424000D03*
%TO.C,J70*%
X136278000Y-64998000D03*
%TO.C,A1*%
X136624143Y-71027000D03*
X136624143Y-119287000D03*
%TO.C,J31*%
X136984143Y-124424000D03*
%TO.C,J71*%
X138778000Y-64998000D03*
%TO.C,A1*%
X139164143Y-71027000D03*
X139164143Y-119287000D03*
%TO.C,J30*%
X139484143Y-124424000D03*
%TO.C,J72*%
X141278000Y-64998000D03*
%TO.C,A1*%
X141704143Y-71027000D03*
X141704143Y-119287000D03*
%TO.C,J29*%
X141984143Y-124424000D03*
%TO.C,J73*%
X143778000Y-64998000D03*
%TO.C,A1*%
X144244143Y-71027000D03*
X144244143Y-119287000D03*
%TO.C,J28*%
X144484143Y-124424000D03*
%TO.C,J74*%
X146278000Y-64998000D03*
%TO.C,A1*%
X146784143Y-71027000D03*
X146784143Y-119287000D03*
%TO.C,J27*%
X146984143Y-124424000D03*
%TO.C,J75*%
X148778000Y-64998000D03*
%TO.C,A1*%
X149324143Y-71027000D03*
X149324143Y-119287000D03*
%TO.C,J26*%
X149484143Y-124424000D03*
%TO.C,J76*%
X151278000Y-64998000D03*
%TO.C,A1*%
X151864143Y-71027000D03*
%TO.C,J77*%
X153778000Y-64998000D03*
%TO.C,A1*%
X154404143Y-71027000D03*
X154404143Y-119287000D03*
%TO.C,J25*%
X154484143Y-124424000D03*
%TO.C,A1*%
X156944143Y-119287000D03*
%TO.C,J24*%
X156984143Y-124424000D03*
%TO.C,J69*%
X157614000Y-65078000D03*
%TO.C,A1*%
X159484143Y-71027000D03*
X159484143Y-119287000D03*
%TO.C,J23*%
X159484143Y-124424000D03*
%TO.C,J68*%
X160114000Y-65078000D03*
%TO.C,J22*%
X161984143Y-124424000D03*
%TO.C,A1*%
X162024143Y-71027000D03*
X162024143Y-119287000D03*
%TO.C,J67*%
X162614000Y-65078000D03*
%TO.C,J21*%
X164484143Y-124424000D03*
%TO.C,A1*%
X164564143Y-71027000D03*
X164564143Y-119287000D03*
%TO.C,J66*%
X165114000Y-65078000D03*
%TO.C,J20*%
X166984143Y-124424000D03*
%TO.C,A1*%
X167104143Y-71027000D03*
X167104143Y-119287000D03*
%TO.C,J65*%
X167614000Y-65078000D03*
%TO.C,J19*%
X169484143Y-124424000D03*
%TO.C,A1*%
X169644143Y-71027000D03*
X169644143Y-119287000D03*
%TO.C,J64*%
X170114000Y-65078000D03*
%TO.C,J18*%
X171984143Y-124424000D03*
%TO.C,A1*%
X172184143Y-71027000D03*
X172184143Y-119287000D03*
%TO.C,J63*%
X172614000Y-65078000D03*
%TO.C,A1*%
X174724143Y-71027000D03*
%TO.C,J62*%
X175114000Y-65078000D03*
%TO.C,A1*%
X177264143Y-71027000D03*
X177264143Y-119287000D03*
%TO.C,J17*%
X177484143Y-124424000D03*
%TO.C,J61*%
X179444000Y-65024000D03*
%TO.C,A1*%
X179804143Y-119287000D03*
%TO.C,J16*%
X179984143Y-124424000D03*
%TO.C,A1*%
X181328143Y-71027000D03*
%TO.C,J60*%
X181944000Y-65024000D03*
%TO.C,A1*%
X182344143Y-119287000D03*
%TO.C,J15*%
X182484143Y-124424000D03*
%TO.C,A1*%
X183868143Y-71027000D03*
%TO.C,J59*%
X184444000Y-65024000D03*
%TO.C,A1*%
X184884143Y-119287000D03*
%TO.C,J14*%
X184984143Y-124424000D03*
%TO.C,A1*%
X186408143Y-71027000D03*
%TO.C,J58*%
X186944000Y-65024000D03*
%TO.C,A1*%
X187424143Y-119287000D03*
%TO.C,J13*%
X187484143Y-124424000D03*
%TO.C,A1*%
X188948143Y-71027000D03*
%TO.C,J57*%
X189444000Y-65024000D03*
%TO.C,A1*%
X189964143Y-119287000D03*
%TO.C,J12*%
X189984143Y-124424000D03*
%TO.C,A1*%
X191488143Y-71027000D03*
%TO.C,J56*%
X191944000Y-65024000D03*
%TO.C,J11*%
X192484143Y-124424000D03*
%TO.C,A1*%
X192504143Y-119287000D03*
X194028143Y-71027000D03*
%TO.C,J55*%
X194444000Y-65024000D03*
%TO.C,J10*%
X194984143Y-124424000D03*
%TO.C,A1*%
X195044143Y-119287000D03*
X196568143Y-71027000D03*
%TO.C,J54*%
X196944000Y-65024000D03*
%TO.C,J95*%
X198984143Y-124424000D03*
%TO.C,A1*%
X199108143Y-71027000D03*
%TO.C,J53*%
X199444000Y-65024000D03*
%TO.C,J94*%
X201484143Y-124424000D03*
%TO.C,A1*%
X201648143Y-71027000D03*
%TO.C,J52*%
X201944000Y-65024000D03*
%TO.C,J93*%
X203984143Y-124424000D03*
%TO.C,A1*%
X204188143Y-71027000D03*
%TO.C,J78*%
X205914000Y-65078000D03*
%TO.C,J92*%
X206484143Y-124424000D03*
%TO.C,J79*%
X208414000Y-65078000D03*
%TO.C,J91*%
X208984143Y-124424000D03*
%TO.C,J80*%
X210914000Y-65078000D03*
%TO.C,J90*%
X211484143Y-124424000D03*
%TO.C,J81*%
X213414000Y-65078000D03*
%TO.C,J89*%
X213984143Y-124424000D03*
%TO.C,J82*%
X215914000Y-65078000D03*
%TO.C,J88*%
X216484143Y-124424000D03*
%TO.C,J83*%
X218414000Y-65078000D03*
%TO.C,J87*%
X218984143Y-124424000D03*
%TO.C,J84*%
X220914000Y-65078000D03*
%TO.C,J85*%
X223414000Y-65078000D03*
%TO.C,J86*%
X225914000Y-65078000D03*
D14*
%TO.C,J2*%
X65104000Y-52832000D03*
X67604000Y-52832000D03*
X70104000Y-52832000D03*
%TO.C,J1*%
X81280000Y-52832000D03*
X83780000Y-52832000D03*
X86280000Y-52832000D03*
%TO.C,J3*%
X97536000Y-52832000D03*
X100036000Y-52832000D03*
%TO.C,J98*%
X101920000Y-127000000D03*
%TO.C,J3*%
X102536000Y-52832000D03*
%TO.C,J98*%
X104420000Y-127000000D03*
X106920000Y-127000000D03*
X109420000Y-127000000D03*
X111920000Y-127000000D03*
%TO.C,J97*%
X113792000Y-52832000D03*
%TO.C,J98*%
X114420000Y-127000000D03*
%TO.C,J97*%
X116292000Y-52832000D03*
%TO.C,J98*%
X116920000Y-127000000D03*
%TO.C,J97*%
X118792000Y-52832000D03*
%TO.C,J98*%
X119420000Y-127000000D03*
X121920000Y-127000000D03*
X124420000Y-127000000D03*
%TO.C,J6*%
X144272000Y-52832000D03*
X146772000Y-52832000D03*
X149272000Y-52832000D03*
X151772000Y-52832000D03*
X154272000Y-52832000D03*
X156772000Y-52832000D03*
%TO.C,J5*%
X167640000Y-52832000D03*
X170140000Y-52832000D03*
X172640000Y-52832000D03*
X175140000Y-52832000D03*
X177640000Y-52832000D03*
X180140000Y-52832000D03*
%TO.C,J4*%
X191008000Y-52832000D03*
X193508000Y-52832000D03*
X196008000Y-52832000D03*
X198508000Y-52832000D03*
X201008000Y-52832000D03*
X203508000Y-52832000D03*
X206008000Y-52832000D03*
X208508000Y-52832000D03*
D15*
%TO.C,D1*%
X62992000Y-106680000D03*
X62992000Y-111680000D03*
X62992000Y-116680000D03*
X62992000Y-121680000D03*
%TO.C,C3*%
X103244000Y-82296000D03*
%TO.C,C2*%
X103244000Y-88392000D03*
%TO.C,C1*%
X103244000Y-94488000D03*
%TO.C,C3*%
X110744000Y-82296000D03*
%TO.C,C2*%
X110744000Y-88392000D03*
%TO.C,C1*%
X110744000Y-94488000D03*
%TO.C,J96*%
X130048000Y-52832000D03*
X132548000Y-52832000D03*
D16*
%TO.C,U8*%
X61684762Y-64463000D03*
X61684762Y-67003000D03*
X61684762Y-69543000D03*
X61684762Y-72083000D03*
X61684762Y-74623000D03*
X61684762Y-77163000D03*
%TO.C,U6*%
X80549762Y-64488000D03*
X80549762Y-67028000D03*
X80549762Y-69568000D03*
X80549762Y-72108000D03*
X80549762Y-74648000D03*
X80549762Y-77188000D03*
D17*
%TO.C,U4*%
X63984000Y-84170000D03*
X63984000Y-86710000D03*
X63984000Y-89250000D03*
%TO.C,U2*%
X63984000Y-96190000D03*
X63984000Y-98730000D03*
X63984000Y-101270000D03*
%TO.C,U1*%
X108000000Y-69100000D03*
X110540000Y-69100000D03*
X113080000Y-69100000D03*
D18*
%TO.C,J9*%
X52820000Y-94530000D03*
X52820000Y-99610000D03*
%TO.C,J7*%
X52832000Y-67056000D03*
X52832000Y-72136000D03*
%TO.C,J8*%
X52832000Y-78232000D03*
X52832000Y-83312000D03*
X52832000Y-88392000D03*
%TD*%
D19*
X55800000Y-58900000D03*
X55900000Y-117900000D03*
X217400000Y-58900000D03*
X217400000Y-105200000D03*
M02*
