%TF.GenerationSoftware,KiCad,Pcbnew,8.0.6*%
%TF.CreationDate,2024-12-14T18:39:01+02:00*%
%TF.ProjectId,Power_PCB,506f7765-725f-4504-9342-2e6b69636164,rev?*%
%TF.SameCoordinates,Original*%
%TF.FileFunction,Soldermask,Top*%
%TF.FilePolarity,Negative*%
%FSLAX46Y46*%
G04 Gerber Fmt 4.6, Leading zero omitted, Abs format (unit mm)*
G04 Created by KiCad (PCBNEW 8.0.6) date 2024-12-14 18:39:01*
%MOMM*%
%LPD*%
G01*
G04 APERTURE LIST*
G04 Aperture macros list*
%AMRoundRect*
0 Rectangle with rounded corners*
0 $1 Rounding radius*
0 $2 $3 $4 $5 $6 $7 $8 $9 X,Y pos of 4 corners*
0 Add a 4 corners polygon primitive as box body*
4,1,4,$2,$3,$4,$5,$6,$7,$8,$9,$2,$3,0*
0 Add four circle primitives for the rounded corners*
1,1,$1+$1,$2,$3*
1,1,$1+$1,$4,$5*
1,1,$1+$1,$6,$7*
1,1,$1+$1,$8,$9*
0 Add four rect primitives between the rounded corners*
20,1,$1+$1,$2,$3,$4,$5,0*
20,1,$1+$1,$4,$5,$6,$7,0*
20,1,$1+$1,$6,$7,$8,$9,0*
20,1,$1+$1,$8,$9,$2,$3,0*%
G04 Aperture macros list end*
%ADD10R,3.000000X3.000000*%
%ADD11C,3.000000*%
%ADD12R,1.600000X1.600000*%
%ADD13O,1.600000X1.600000*%
%ADD14R,2.000000X1.905000*%
%ADD15O,2.000000X1.905000*%
%ADD16C,1.400000*%
%ADD17O,1.400000X1.400000*%
%ADD18R,1.800000X1.800000*%
%ADD19C,1.800000*%
%ADD20R,1.905000X2.000000*%
%ADD21O,1.905000X2.000000*%
%ADD22R,2.000000X2.000000*%
%ADD23C,2.000000*%
%ADD24RoundRect,0.250000X0.600000X0.725000X-0.600000X0.725000X-0.600000X-0.725000X0.600000X-0.725000X0*%
%ADD25O,1.700000X1.950000*%
G04 APERTURE END LIST*
D10*
%TO.C,Mag4*%
X129796000Y-50812000D03*
D11*
X129796000Y-55892000D03*
%TD*%
D12*
%TO.C,U6*%
X100576000Y-95775000D03*
D13*
X100576000Y-93235000D03*
X92956000Y-93235000D03*
X92956000Y-95775000D03*
%TD*%
D14*
%TO.C,Q3*%
X70868000Y-78244000D03*
D15*
X70868000Y-75704000D03*
X70868000Y-73164000D03*
%TD*%
D16*
%TO.C,330*%
X100332000Y-49542000D03*
D17*
X100332000Y-57162000D03*
%TD*%
D14*
%TO.C,Q1*%
X121668000Y-84340000D03*
D15*
X121668000Y-86880000D03*
X121668000Y-89420000D03*
%TD*%
D10*
%TO.C,Alarm*%
X93220000Y-101612000D03*
D11*
X88140000Y-101612000D03*
%TD*%
D12*
%TO.C,U8*%
X110492000Y-68328000D03*
D13*
X113032000Y-68328000D03*
X113032000Y-60708000D03*
X110492000Y-60708000D03*
%TD*%
D18*
%TO.C,D5*%
X105412000Y-74429000D03*
D19*
X105412000Y-76969000D03*
%TD*%
D16*
%TO.C,330*%
X93220000Y-71894000D03*
D17*
X93220000Y-79514000D03*
%TD*%
D12*
%TO.C,U1*%
X110492000Y-90680000D03*
D13*
X113032000Y-90680000D03*
X113032000Y-83060000D03*
X110492000Y-83060000D03*
%TD*%
D16*
%TO.C,1K*%
X75948000Y-68338000D03*
D17*
X75948000Y-60718000D03*
%TD*%
D16*
%TO.C,330*%
X100332000Y-83070000D03*
D17*
X100332000Y-90690000D03*
%TD*%
D10*
%TO.C,Mag1*%
X129796000Y-84340000D03*
D11*
X129796000Y-89420000D03*
%TD*%
D14*
%TO.C,Q7*%
X121668000Y-61988000D03*
D15*
X121668000Y-64528000D03*
X121668000Y-67068000D03*
%TD*%
D18*
%TO.C,D7*%
X88140000Y-65803000D03*
D19*
X88140000Y-63263000D03*
%TD*%
D20*
%TO.C,Q5*%
X61724000Y-95882500D03*
D21*
X64264000Y-95882500D03*
X66804000Y-95882500D03*
%TD*%
D10*
%TO.C,Power*%
X104396000Y-101612000D03*
D11*
X99316000Y-101612000D03*
%TD*%
D18*
%TO.C,D2*%
X105412000Y-85605000D03*
D19*
X105412000Y-88145000D03*
%TD*%
D14*
%TO.C,Q6*%
X70868000Y-67068000D03*
D15*
X70868000Y-64528000D03*
X70868000Y-61988000D03*
%TD*%
D14*
%TO.C,Q8*%
X70868000Y-89420000D03*
D15*
X70868000Y-86880000D03*
X70868000Y-84340000D03*
%TD*%
D16*
%TO.C,330*%
X100332000Y-71894000D03*
D17*
X100332000Y-79514000D03*
%TD*%
D12*
%TO.C,U2*%
X110492000Y-57152000D03*
D13*
X113032000Y-57152000D03*
X113032000Y-49532000D03*
X110492000Y-49532000D03*
%TD*%
D10*
%TO.C,Mag3*%
X129796000Y-61988000D03*
D11*
X129796000Y-67068000D03*
%TD*%
D20*
%TO.C,U4*%
X125732000Y-95882500D03*
D21*
X128272000Y-95882500D03*
X130812000Y-95882500D03*
%TD*%
D18*
%TO.C,D8*%
X105412000Y-63253000D03*
D19*
X105412000Y-65793000D03*
%TD*%
D10*
%TO.C,Mag2*%
X129796000Y-73164000D03*
D11*
X129796000Y-78244000D03*
%TD*%
D14*
%TO.C,Q9*%
X70868000Y-55892000D03*
D15*
X70868000Y-53352000D03*
X70868000Y-50812000D03*
%TD*%
D22*
%TO.C,D1*%
X104636000Y-94517500D03*
D23*
X109636000Y-94517500D03*
X114636000Y-94517500D03*
X119636000Y-94517500D03*
%TD*%
D16*
%TO.C,1K*%
X75948000Y-79514000D03*
D17*
X75948000Y-71894000D03*
%TD*%
D16*
%TO.C,330*%
X88902000Y-96532000D03*
D17*
X81282000Y-96532000D03*
%TD*%
D14*
%TO.C,Q2*%
X121668000Y-50812000D03*
D15*
X121668000Y-53352000D03*
X121668000Y-55892000D03*
%TD*%
D18*
%TO.C,D9*%
X88140000Y-88155000D03*
D19*
X88140000Y-85615000D03*
%TD*%
D16*
%TO.C,1K*%
X116588000Y-83070000D03*
D17*
X116588000Y-90690000D03*
%TD*%
D10*
%TO.C,Extra1*%
X62740000Y-89420000D03*
D11*
X62740000Y-84340000D03*
%TD*%
D12*
%TO.C,U7*%
X83060000Y-60728000D03*
D13*
X80520000Y-60728000D03*
X80520000Y-68348000D03*
X83060000Y-68348000D03*
%TD*%
D12*
%TO.C,U10*%
X83060000Y-49552000D03*
D13*
X80520000Y-49552000D03*
X80520000Y-57172000D03*
X83060000Y-57172000D03*
%TD*%
D18*
%TO.C,D4*%
X88140000Y-76979000D03*
D19*
X88140000Y-74439000D03*
%TD*%
D18*
%TO.C,D6*%
X74932000Y-95008000D03*
D19*
X77472000Y-95008000D03*
%TD*%
D16*
%TO.C,1K*%
X116588000Y-49542000D03*
D17*
X116588000Y-57162000D03*
%TD*%
D16*
%TO.C,330*%
X93220000Y-83070000D03*
D17*
X93220000Y-90690000D03*
%TD*%
D16*
%TO.C,330*%
X93220000Y-49542000D03*
D17*
X93220000Y-57162000D03*
%TD*%
D12*
%TO.C,U3*%
X83060000Y-71904000D03*
D13*
X80520000Y-71904000D03*
X80520000Y-79524000D03*
X83060000Y-79524000D03*
%TD*%
D14*
%TO.C,Q4*%
X121668000Y-73164000D03*
D15*
X121668000Y-75704000D03*
X121668000Y-78244000D03*
%TD*%
D16*
%TO.C,330*%
X100332000Y-60718000D03*
D17*
X100332000Y-68338000D03*
%TD*%
D16*
%TO.C,1K*%
X116588000Y-60718000D03*
D17*
X116588000Y-68338000D03*
%TD*%
D16*
%TO.C,330*%
X93220000Y-60718000D03*
D17*
X93220000Y-68338000D03*
%TD*%
D10*
%TO.C,Extra4*%
X62740000Y-55892000D03*
D11*
X62740000Y-50812000D03*
%TD*%
D16*
%TO.C,1K*%
X116588000Y-71894000D03*
D17*
X116588000Y-79514000D03*
%TD*%
D10*
%TO.C,Extra2*%
X62740000Y-78244000D03*
D11*
X62740000Y-73164000D03*
%TD*%
D16*
%TO.C,1K*%
X75948000Y-57162000D03*
D17*
X75948000Y-49542000D03*
%TD*%
D10*
%TO.C,Extra3*%
X62740000Y-67068000D03*
D11*
X62740000Y-61988000D03*
%TD*%
D16*
%TO.C,1K*%
X88902000Y-93484000D03*
D17*
X81282000Y-93484000D03*
%TD*%
D24*
%TO.C,From_Control*%
X107444000Y-43772000D03*
D25*
X104944000Y-43772000D03*
X102444000Y-43772000D03*
X99944000Y-43772000D03*
X97444000Y-43772000D03*
X94944000Y-43772000D03*
X92444000Y-43772000D03*
X89944000Y-43772000D03*
X87444000Y-43772000D03*
X84944000Y-43772000D03*
%TD*%
D18*
%TO.C,D10*%
X88140000Y-54627000D03*
D19*
X88140000Y-52087000D03*
%TD*%
D16*
%TO.C,1K*%
X75948000Y-90690000D03*
D17*
X75948000Y-83070000D03*
%TD*%
D12*
%TO.C,U9*%
X83060000Y-83080000D03*
D13*
X80520000Y-83080000D03*
X80520000Y-90700000D03*
X83060000Y-90700000D03*
%TD*%
D18*
%TO.C,D3*%
X105412000Y-52077000D03*
D19*
X105412000Y-54617000D03*
%TD*%
D12*
%TO.C,U5*%
X110492000Y-79504000D03*
D13*
X113032000Y-79504000D03*
X113032000Y-71884000D03*
X110492000Y-71884000D03*
%TD*%
M02*
