%TF.GenerationSoftware,KiCad,Pcbnew,8.0.6*%
%TF.CreationDate,2024-12-14T18:39:09+02:00*%
%TF.ProjectId,Power_PCB,506f7765-725f-4504-9342-2e6b69636164,rev?*%
%TF.SameCoordinates,Original*%
%TF.FileFunction,Plated,1,2,PTH,Drill*%
%TF.FilePolarity,Positive*%
%FSLAX46Y46*%
G04 Gerber Fmt 4.6, Leading zero omitted, Abs format (unit mm)*
G04 Created by KiCad (PCBNEW 8.0.6) date 2024-12-14 18:39:09*
%MOMM*%
%LPD*%
G01*
G04 APERTURE LIST*
%TA.AperFunction,ViaDrill*%
%ADD10C,0.700000*%
%TD*%
%TA.AperFunction,ComponentDrill*%
%ADD11C,0.700000*%
%TD*%
%TA.AperFunction,ComponentDrill*%
%ADD12C,0.800000*%
%TD*%
%TA.AperFunction,ComponentDrill*%
%ADD13C,0.900000*%
%TD*%
%TA.AperFunction,ComponentDrill*%
%ADD14C,0.950000*%
%TD*%
%TA.AperFunction,ComponentDrill*%
%ADD15C,1.000000*%
%TD*%
%TA.AperFunction,ComponentDrill*%
%ADD16C,1.100000*%
%TD*%
%TA.AperFunction,ComponentDrill*%
%ADD17C,1.520000*%
%TD*%
%TA.AperFunction,ViaDrill*%
%ADD18C,3.000000*%
%TD*%
G04 APERTURE END LIST*
D10*
X91188000Y-90436000D03*
X93220000Y-53352000D03*
X100332000Y-53352000D03*
X100332000Y-87388000D03*
X102364000Y-90436000D03*
D11*
%TO.C,1K*%
X75948000Y-49542000D03*
X75948000Y-57162000D03*
X75948000Y-60718000D03*
X75948000Y-68338000D03*
X75948000Y-71894000D03*
X75948000Y-79514000D03*
X75948000Y-83070000D03*
X75948000Y-90690000D03*
X81282000Y-93484000D03*
%TO.C,330*%
X81282000Y-96532000D03*
%TO.C,1K*%
X88902000Y-93484000D03*
%TO.C,330*%
X88902000Y-96532000D03*
X93220000Y-49542000D03*
X93220000Y-57162000D03*
X93220000Y-60718000D03*
X93220000Y-68338000D03*
X93220000Y-71894000D03*
X93220000Y-79514000D03*
X93220000Y-83070000D03*
X93220000Y-90690000D03*
X100332000Y-49542000D03*
X100332000Y-57162000D03*
X100332000Y-60718000D03*
X100332000Y-68338000D03*
X100332000Y-71894000D03*
X100332000Y-79514000D03*
X100332000Y-83070000D03*
X100332000Y-90690000D03*
%TO.C,1K*%
X116588000Y-49542000D03*
X116588000Y-57162000D03*
X116588000Y-60718000D03*
X116588000Y-68338000D03*
X116588000Y-71894000D03*
X116588000Y-79514000D03*
X116588000Y-83070000D03*
X116588000Y-90690000D03*
D12*
%TO.C,U10*%
X80520000Y-49552000D03*
X80520000Y-57172000D03*
%TO.C,U7*%
X80520000Y-60728000D03*
X80520000Y-68348000D03*
%TO.C,U3*%
X80520000Y-71904000D03*
X80520000Y-79524000D03*
%TO.C,U9*%
X80520000Y-83080000D03*
X80520000Y-90700000D03*
%TO.C,U10*%
X83060000Y-49552000D03*
X83060000Y-57172000D03*
%TO.C,U7*%
X83060000Y-60728000D03*
X83060000Y-68348000D03*
%TO.C,U3*%
X83060000Y-71904000D03*
X83060000Y-79524000D03*
%TO.C,U9*%
X83060000Y-83080000D03*
X83060000Y-90700000D03*
%TO.C,U6*%
X92956000Y-93235000D03*
X92956000Y-95775000D03*
X100576000Y-93235000D03*
X100576000Y-95775000D03*
%TO.C,U2*%
X110492000Y-49532000D03*
X110492000Y-57152000D03*
%TO.C,U8*%
X110492000Y-60708000D03*
X110492000Y-68328000D03*
%TO.C,U5*%
X110492000Y-71884000D03*
X110492000Y-79504000D03*
%TO.C,U1*%
X110492000Y-83060000D03*
X110492000Y-90680000D03*
%TO.C,U2*%
X113032000Y-49532000D03*
X113032000Y-57152000D03*
%TO.C,U8*%
X113032000Y-60708000D03*
X113032000Y-68328000D03*
%TO.C,U5*%
X113032000Y-71884000D03*
X113032000Y-79504000D03*
%TO.C,U1*%
X113032000Y-83060000D03*
X113032000Y-90680000D03*
D13*
%TO.C,D6*%
X74932000Y-95008000D03*
X77472000Y-95008000D03*
%TO.C,D10*%
X88140000Y-52087000D03*
X88140000Y-54627000D03*
%TO.C,D7*%
X88140000Y-63263000D03*
X88140000Y-65803000D03*
%TO.C,D4*%
X88140000Y-74439000D03*
X88140000Y-76979000D03*
%TO.C,D9*%
X88140000Y-85615000D03*
X88140000Y-88155000D03*
%TO.C,D3*%
X105412000Y-52077000D03*
X105412000Y-54617000D03*
%TO.C,D8*%
X105412000Y-63253000D03*
X105412000Y-65793000D03*
%TO.C,D5*%
X105412000Y-74429000D03*
X105412000Y-76969000D03*
%TO.C,D2*%
X105412000Y-85605000D03*
X105412000Y-88145000D03*
D14*
%TO.C,From_Control*%
X84944000Y-43772000D03*
X87444000Y-43772000D03*
X89944000Y-43772000D03*
X92444000Y-43772000D03*
X94944000Y-43772000D03*
X97444000Y-43772000D03*
X99944000Y-43772000D03*
X102444000Y-43772000D03*
X104944000Y-43772000D03*
X107444000Y-43772000D03*
D15*
%TO.C,D1*%
X104636000Y-94517500D03*
X109636000Y-94517500D03*
X114636000Y-94517500D03*
X119636000Y-94517500D03*
D16*
%TO.C,Q5*%
X61724000Y-95882500D03*
X64264000Y-95882500D03*
X66804000Y-95882500D03*
%TO.C,Q9*%
X70868000Y-50812000D03*
X70868000Y-53352000D03*
X70868000Y-55892000D03*
%TO.C,Q6*%
X70868000Y-61988000D03*
X70868000Y-64528000D03*
X70868000Y-67068000D03*
%TO.C,Q3*%
X70868000Y-73164000D03*
X70868000Y-75704000D03*
X70868000Y-78244000D03*
%TO.C,Q8*%
X70868000Y-84340000D03*
X70868000Y-86880000D03*
X70868000Y-89420000D03*
%TO.C,Q2*%
X121668000Y-50812000D03*
X121668000Y-53352000D03*
X121668000Y-55892000D03*
%TO.C,Q7*%
X121668000Y-61988000D03*
X121668000Y-64528000D03*
X121668000Y-67068000D03*
%TO.C,Q4*%
X121668000Y-73164000D03*
X121668000Y-75704000D03*
X121668000Y-78244000D03*
%TO.C,Q1*%
X121668000Y-84340000D03*
X121668000Y-86880000D03*
X121668000Y-89420000D03*
%TO.C,U4*%
X125732000Y-95882500D03*
X128272000Y-95882500D03*
X130812000Y-95882500D03*
D17*
%TO.C,Extra4*%
X62740000Y-50812000D03*
X62740000Y-55892000D03*
%TO.C,Extra3*%
X62740000Y-61988000D03*
X62740000Y-67068000D03*
%TO.C,Extra2*%
X62740000Y-73164000D03*
X62740000Y-78244000D03*
%TO.C,Extra1*%
X62740000Y-84340000D03*
X62740000Y-89420000D03*
%TO.C,Alarm*%
X88140000Y-101612000D03*
X93220000Y-101612000D03*
%TO.C,Power*%
X99316000Y-101612000D03*
X104396000Y-101612000D03*
%TO.C,Mag4*%
X129796000Y-50812000D03*
X129796000Y-55892000D03*
%TO.C,Mag3*%
X129796000Y-61988000D03*
X129796000Y-67068000D03*
%TO.C,Mag2*%
X129796000Y-73164000D03*
X129796000Y-78244000D03*
%TO.C,Mag1*%
X129796000Y-84340000D03*
X129796000Y-89420000D03*
%TD*%
D18*
X57660000Y-105676000D03*
X58676000Y-44716000D03*
X134876000Y-44716000D03*
X134876000Y-105676000D03*
M02*
