%TF.GenerationSoftware,KiCad,Pcbnew,8.0.6*%
%TF.CreationDate,2024-12-14T18:39:00+02:00*%
%TF.ProjectId,Power_PCB,506f7765-725f-4504-9342-2e6b69636164,rev?*%
%TF.SameCoordinates,Original*%
%TF.FileFunction,Legend,Top*%
%TF.FilePolarity,Positive*%
%FSLAX46Y46*%
G04 Gerber Fmt 4.6, Leading zero omitted, Abs format (unit mm)*
G04 Created by KiCad (PCBNEW 8.0.6) date 2024-12-14 18:39:00*
%MOMM*%
%LPD*%
G01*
G04 APERTURE LIST*
%ADD10C,0.150000*%
%ADD11C,0.120000*%
G04 APERTURE END LIST*
D10*
X56082819Y-64718476D02*
X56082819Y-65289904D01*
X56082819Y-65004190D02*
X55082819Y-65004190D01*
X55082819Y-65004190D02*
X55225676Y-65099428D01*
X55225676Y-65099428D02*
X55320914Y-65194666D01*
X55320914Y-65194666D02*
X55368533Y-65289904D01*
X55082819Y-64385142D02*
X55082819Y-63718476D01*
X55082819Y-63718476D02*
X56082819Y-64147047D01*
X56082819Y-53066286D02*
X56082819Y-53637714D01*
X56082819Y-53352000D02*
X55082819Y-53352000D01*
X55082819Y-53352000D02*
X55225676Y-53447238D01*
X55225676Y-53447238D02*
X55320914Y-53542476D01*
X55320914Y-53542476D02*
X55368533Y-53637714D01*
X137362819Y-64718476D02*
X137362819Y-64528000D01*
X137362819Y-64528000D02*
X137315200Y-64432762D01*
X137315200Y-64432762D02*
X137267580Y-64385143D01*
X137267580Y-64385143D02*
X137124723Y-64289905D01*
X137124723Y-64289905D02*
X136934247Y-64242286D01*
X136934247Y-64242286D02*
X136553295Y-64242286D01*
X136553295Y-64242286D02*
X136458057Y-64289905D01*
X136458057Y-64289905D02*
X136410438Y-64337524D01*
X136410438Y-64337524D02*
X136362819Y-64432762D01*
X136362819Y-64432762D02*
X136362819Y-64623238D01*
X136362819Y-64623238D02*
X136410438Y-64718476D01*
X136410438Y-64718476D02*
X136458057Y-64766095D01*
X136458057Y-64766095D02*
X136553295Y-64813714D01*
X136553295Y-64813714D02*
X136791390Y-64813714D01*
X136791390Y-64813714D02*
X136886628Y-64766095D01*
X136886628Y-64766095D02*
X136934247Y-64718476D01*
X136934247Y-64718476D02*
X136981866Y-64623238D01*
X136981866Y-64623238D02*
X136981866Y-64432762D01*
X136981866Y-64432762D02*
X136934247Y-64337524D01*
X136934247Y-64337524D02*
X136886628Y-64289905D01*
X136886628Y-64289905D02*
X136791390Y-64242286D01*
X136791390Y-53447238D02*
X136743771Y-53542476D01*
X136743771Y-53542476D02*
X136696152Y-53590095D01*
X136696152Y-53590095D02*
X136600914Y-53637714D01*
X136600914Y-53637714D02*
X136553295Y-53637714D01*
X136553295Y-53637714D02*
X136458057Y-53590095D01*
X136458057Y-53590095D02*
X136410438Y-53542476D01*
X136410438Y-53542476D02*
X136362819Y-53447238D01*
X136362819Y-53447238D02*
X136362819Y-53256762D01*
X136362819Y-53256762D02*
X136410438Y-53161524D01*
X136410438Y-53161524D02*
X136458057Y-53113905D01*
X136458057Y-53113905D02*
X136553295Y-53066286D01*
X136553295Y-53066286D02*
X136600914Y-53066286D01*
X136600914Y-53066286D02*
X136696152Y-53113905D01*
X136696152Y-53113905D02*
X136743771Y-53161524D01*
X136743771Y-53161524D02*
X136791390Y-53256762D01*
X136791390Y-53256762D02*
X136791390Y-53447238D01*
X136791390Y-53447238D02*
X136839009Y-53542476D01*
X136839009Y-53542476D02*
X136886628Y-53590095D01*
X136886628Y-53590095D02*
X136981866Y-53637714D01*
X136981866Y-53637714D02*
X137172342Y-53637714D01*
X137172342Y-53637714D02*
X137267580Y-53590095D01*
X137267580Y-53590095D02*
X137315200Y-53542476D01*
X137315200Y-53542476D02*
X137362819Y-53447238D01*
X137362819Y-53447238D02*
X137362819Y-53256762D01*
X137362819Y-53256762D02*
X137315200Y-53161524D01*
X137315200Y-53161524D02*
X137267580Y-53113905D01*
X137267580Y-53113905D02*
X137172342Y-53066286D01*
X137172342Y-53066286D02*
X136981866Y-53066286D01*
X136981866Y-53066286D02*
X136886628Y-53113905D01*
X136886628Y-53113905D02*
X136839009Y-53161524D01*
X136839009Y-53161524D02*
X136791390Y-53256762D01*
X137362819Y-87070476D02*
X137362819Y-87641904D01*
X137362819Y-87356190D02*
X136362819Y-87356190D01*
X136362819Y-87356190D02*
X136505676Y-87451428D01*
X136505676Y-87451428D02*
X136600914Y-87546666D01*
X136600914Y-87546666D02*
X136648533Y-87641904D01*
X137362819Y-86118095D02*
X137362819Y-86689523D01*
X137362819Y-86403809D02*
X136362819Y-86403809D01*
X136362819Y-86403809D02*
X136505676Y-86499047D01*
X136505676Y-86499047D02*
X136600914Y-86594285D01*
X136600914Y-86594285D02*
X136648533Y-86689523D01*
X101236952Y-109178819D02*
X100665524Y-109178819D01*
X100951238Y-109178819D02*
X100951238Y-108178819D01*
X100951238Y-108178819D02*
X100856000Y-108321676D01*
X100856000Y-108321676D02*
X100760762Y-108416914D01*
X100760762Y-108416914D02*
X100665524Y-108464533D01*
X101617905Y-108274057D02*
X101665524Y-108226438D01*
X101665524Y-108226438D02*
X101760762Y-108178819D01*
X101760762Y-108178819D02*
X101998857Y-108178819D01*
X101998857Y-108178819D02*
X102094095Y-108226438D01*
X102094095Y-108226438D02*
X102141714Y-108274057D01*
X102141714Y-108274057D02*
X102189333Y-108369295D01*
X102189333Y-108369295D02*
X102189333Y-108464533D01*
X102189333Y-108464533D02*
X102141714Y-108607390D01*
X102141714Y-108607390D02*
X101570286Y-109178819D01*
X101570286Y-109178819D02*
X102189333Y-109178819D01*
X102475048Y-108178819D02*
X102808381Y-109178819D01*
X102808381Y-109178819D02*
X103141714Y-108178819D01*
X56082819Y-75894476D02*
X56082819Y-76465904D01*
X56082819Y-76180190D02*
X55082819Y-76180190D01*
X55082819Y-76180190D02*
X55225676Y-76275428D01*
X55225676Y-76275428D02*
X55320914Y-76370666D01*
X55320914Y-76370666D02*
X55368533Y-76465904D01*
X55082819Y-75037333D02*
X55082819Y-75227809D01*
X55082819Y-75227809D02*
X55130438Y-75323047D01*
X55130438Y-75323047D02*
X55178057Y-75370666D01*
X55178057Y-75370666D02*
X55320914Y-75465904D01*
X55320914Y-75465904D02*
X55511390Y-75513523D01*
X55511390Y-75513523D02*
X55892342Y-75513523D01*
X55892342Y-75513523D02*
X55987580Y-75465904D01*
X55987580Y-75465904D02*
X56035200Y-75418285D01*
X56035200Y-75418285D02*
X56082819Y-75323047D01*
X56082819Y-75323047D02*
X56082819Y-75132571D01*
X56082819Y-75132571D02*
X56035200Y-75037333D01*
X56035200Y-75037333D02*
X55987580Y-74989714D01*
X55987580Y-74989714D02*
X55892342Y-74942095D01*
X55892342Y-74942095D02*
X55654247Y-74942095D01*
X55654247Y-74942095D02*
X55559009Y-74989714D01*
X55559009Y-74989714D02*
X55511390Y-75037333D01*
X55511390Y-75037333D02*
X55463771Y-75132571D01*
X55463771Y-75132571D02*
X55463771Y-75323047D01*
X55463771Y-75323047D02*
X55511390Y-75418285D01*
X55511390Y-75418285D02*
X55559009Y-75465904D01*
X55559009Y-75465904D02*
X55654247Y-75513523D01*
X137362819Y-75894476D02*
X137362819Y-76465904D01*
X137362819Y-76180190D02*
X136362819Y-76180190D01*
X136362819Y-76180190D02*
X136505676Y-76275428D01*
X136505676Y-76275428D02*
X136600914Y-76370666D01*
X136600914Y-76370666D02*
X136648533Y-76465904D01*
X136362819Y-75275428D02*
X136362819Y-75180190D01*
X136362819Y-75180190D02*
X136410438Y-75084952D01*
X136410438Y-75084952D02*
X136458057Y-75037333D01*
X136458057Y-75037333D02*
X136553295Y-74989714D01*
X136553295Y-74989714D02*
X136743771Y-74942095D01*
X136743771Y-74942095D02*
X136981866Y-74942095D01*
X136981866Y-74942095D02*
X137172342Y-74989714D01*
X137172342Y-74989714D02*
X137267580Y-75037333D01*
X137267580Y-75037333D02*
X137315200Y-75084952D01*
X137315200Y-75084952D02*
X137362819Y-75180190D01*
X137362819Y-75180190D02*
X137362819Y-75275428D01*
X137362819Y-75275428D02*
X137315200Y-75370666D01*
X137315200Y-75370666D02*
X137267580Y-75418285D01*
X137267580Y-75418285D02*
X137172342Y-75465904D01*
X137172342Y-75465904D02*
X136981866Y-75513523D01*
X136981866Y-75513523D02*
X136743771Y-75513523D01*
X136743771Y-75513523D02*
X136553295Y-75465904D01*
X136553295Y-75465904D02*
X136458057Y-75418285D01*
X136458057Y-75418285D02*
X136410438Y-75370666D01*
X136410438Y-75370666D02*
X136362819Y-75275428D01*
X90489523Y-109178819D02*
X89918095Y-109178819D01*
X90203809Y-109178819D02*
X90203809Y-108178819D01*
X90203809Y-108178819D02*
X90108571Y-108321676D01*
X90108571Y-108321676D02*
X90013333Y-108416914D01*
X90013333Y-108416914D02*
X89918095Y-108464533D01*
X91394285Y-108178819D02*
X90918095Y-108178819D01*
X90918095Y-108178819D02*
X90870476Y-108655009D01*
X90870476Y-108655009D02*
X90918095Y-108607390D01*
X90918095Y-108607390D02*
X91013333Y-108559771D01*
X91013333Y-108559771D02*
X91251428Y-108559771D01*
X91251428Y-108559771D02*
X91346666Y-108607390D01*
X91346666Y-108607390D02*
X91394285Y-108655009D01*
X91394285Y-108655009D02*
X91441904Y-108750247D01*
X91441904Y-108750247D02*
X91441904Y-108988342D01*
X91441904Y-108988342D02*
X91394285Y-109083580D01*
X91394285Y-109083580D02*
X91346666Y-109131200D01*
X91346666Y-109131200D02*
X91251428Y-109178819D01*
X91251428Y-109178819D02*
X91013333Y-109178819D01*
X91013333Y-109178819D02*
X90918095Y-109131200D01*
X90918095Y-109131200D02*
X90870476Y-109083580D01*
X55082819Y-86927619D02*
X55082819Y-86832381D01*
X55082819Y-86832381D02*
X55130438Y-86737143D01*
X55130438Y-86737143D02*
X55178057Y-86689524D01*
X55178057Y-86689524D02*
X55273295Y-86641905D01*
X55273295Y-86641905D02*
X55463771Y-86594286D01*
X55463771Y-86594286D02*
X55701866Y-86594286D01*
X55701866Y-86594286D02*
X55892342Y-86641905D01*
X55892342Y-86641905D02*
X55987580Y-86689524D01*
X55987580Y-86689524D02*
X56035200Y-86737143D01*
X56035200Y-86737143D02*
X56082819Y-86832381D01*
X56082819Y-86832381D02*
X56082819Y-86927619D01*
X56082819Y-86927619D02*
X56035200Y-87022857D01*
X56035200Y-87022857D02*
X55987580Y-87070476D01*
X55987580Y-87070476D02*
X55892342Y-87118095D01*
X55892342Y-87118095D02*
X55701866Y-87165714D01*
X55701866Y-87165714D02*
X55463771Y-87165714D01*
X55463771Y-87165714D02*
X55273295Y-87118095D01*
X55273295Y-87118095D02*
X55178057Y-87070476D01*
X55178057Y-87070476D02*
X55130438Y-87022857D01*
X55130438Y-87022857D02*
X55082819Y-86927619D01*
X135330819Y-55066285D02*
X134330819Y-55066285D01*
X134330819Y-55066285D02*
X135045104Y-54732952D01*
X135045104Y-54732952D02*
X134330819Y-54399619D01*
X134330819Y-54399619D02*
X135330819Y-54399619D01*
X135330819Y-53494857D02*
X134807009Y-53494857D01*
X134807009Y-53494857D02*
X134711771Y-53542476D01*
X134711771Y-53542476D02*
X134664152Y-53637714D01*
X134664152Y-53637714D02*
X134664152Y-53828190D01*
X134664152Y-53828190D02*
X134711771Y-53923428D01*
X135283200Y-53494857D02*
X135330819Y-53590095D01*
X135330819Y-53590095D02*
X135330819Y-53828190D01*
X135330819Y-53828190D02*
X135283200Y-53923428D01*
X135283200Y-53923428D02*
X135187961Y-53971047D01*
X135187961Y-53971047D02*
X135092723Y-53971047D01*
X135092723Y-53971047D02*
X134997485Y-53923428D01*
X134997485Y-53923428D02*
X134949866Y-53828190D01*
X134949866Y-53828190D02*
X134949866Y-53590095D01*
X134949866Y-53590095D02*
X134902247Y-53494857D01*
X134664152Y-52590095D02*
X135473676Y-52590095D01*
X135473676Y-52590095D02*
X135568914Y-52637714D01*
X135568914Y-52637714D02*
X135616533Y-52685333D01*
X135616533Y-52685333D02*
X135664152Y-52780571D01*
X135664152Y-52780571D02*
X135664152Y-52923428D01*
X135664152Y-52923428D02*
X135616533Y-53018666D01*
X135283200Y-52590095D02*
X135330819Y-52685333D01*
X135330819Y-52685333D02*
X135330819Y-52875809D01*
X135330819Y-52875809D02*
X135283200Y-52971047D01*
X135283200Y-52971047D02*
X135235580Y-53018666D01*
X135235580Y-53018666D02*
X135140342Y-53066285D01*
X135140342Y-53066285D02*
X134854628Y-53066285D01*
X134854628Y-53066285D02*
X134759390Y-53018666D01*
X134759390Y-53018666D02*
X134711771Y-52971047D01*
X134711771Y-52971047D02*
X134664152Y-52875809D01*
X134664152Y-52875809D02*
X134664152Y-52685333D01*
X134664152Y-52685333D02*
X134711771Y-52590095D01*
X134664152Y-51685333D02*
X135330819Y-51685333D01*
X134283200Y-51923428D02*
X134997485Y-52161523D01*
X134997485Y-52161523D02*
X134997485Y-51542476D01*
X96014095Y-94213819D02*
X96014095Y-95023342D01*
X96014095Y-95023342D02*
X96061714Y-95118580D01*
X96061714Y-95118580D02*
X96109333Y-95166200D01*
X96109333Y-95166200D02*
X96204571Y-95213819D01*
X96204571Y-95213819D02*
X96395047Y-95213819D01*
X96395047Y-95213819D02*
X96490285Y-95166200D01*
X96490285Y-95166200D02*
X96537904Y-95118580D01*
X96537904Y-95118580D02*
X96585523Y-95023342D01*
X96585523Y-95023342D02*
X96585523Y-94213819D01*
X97490285Y-94213819D02*
X97299809Y-94213819D01*
X97299809Y-94213819D02*
X97204571Y-94261438D01*
X97204571Y-94261438D02*
X97156952Y-94309057D01*
X97156952Y-94309057D02*
X97061714Y-94451914D01*
X97061714Y-94451914D02*
X97014095Y-94642390D01*
X97014095Y-94642390D02*
X97014095Y-95023342D01*
X97014095Y-95023342D02*
X97061714Y-95118580D01*
X97061714Y-95118580D02*
X97109333Y-95166200D01*
X97109333Y-95166200D02*
X97204571Y-95213819D01*
X97204571Y-95213819D02*
X97395047Y-95213819D01*
X97395047Y-95213819D02*
X97490285Y-95166200D01*
X97490285Y-95166200D02*
X97537904Y-95118580D01*
X97537904Y-95118580D02*
X97585523Y-95023342D01*
X97585523Y-95023342D02*
X97585523Y-94785247D01*
X97585523Y-94785247D02*
X97537904Y-94690009D01*
X97537904Y-94690009D02*
X97490285Y-94642390D01*
X97490285Y-94642390D02*
X97395047Y-94594771D01*
X97395047Y-94594771D02*
X97204571Y-94594771D01*
X97204571Y-94594771D02*
X97109333Y-94642390D01*
X97109333Y-94642390D02*
X97061714Y-94690009D01*
X97061714Y-94690009D02*
X97014095Y-94785247D01*
X97754819Y-54637713D02*
X97754819Y-54018666D01*
X97754819Y-54018666D02*
X98135771Y-54351999D01*
X98135771Y-54351999D02*
X98135771Y-54209142D01*
X98135771Y-54209142D02*
X98183390Y-54113904D01*
X98183390Y-54113904D02*
X98231009Y-54066285D01*
X98231009Y-54066285D02*
X98326247Y-54018666D01*
X98326247Y-54018666D02*
X98564342Y-54018666D01*
X98564342Y-54018666D02*
X98659580Y-54066285D01*
X98659580Y-54066285D02*
X98707200Y-54113904D01*
X98707200Y-54113904D02*
X98754819Y-54209142D01*
X98754819Y-54209142D02*
X98754819Y-54494856D01*
X98754819Y-54494856D02*
X98707200Y-54590094D01*
X98707200Y-54590094D02*
X98659580Y-54637713D01*
X97754819Y-53685332D02*
X97754819Y-53066285D01*
X97754819Y-53066285D02*
X98135771Y-53399618D01*
X98135771Y-53399618D02*
X98135771Y-53256761D01*
X98135771Y-53256761D02*
X98183390Y-53161523D01*
X98183390Y-53161523D02*
X98231009Y-53113904D01*
X98231009Y-53113904D02*
X98326247Y-53066285D01*
X98326247Y-53066285D02*
X98564342Y-53066285D01*
X98564342Y-53066285D02*
X98659580Y-53113904D01*
X98659580Y-53113904D02*
X98707200Y-53161523D01*
X98707200Y-53161523D02*
X98754819Y-53256761D01*
X98754819Y-53256761D02*
X98754819Y-53542475D01*
X98754819Y-53542475D02*
X98707200Y-53637713D01*
X98707200Y-53637713D02*
X98659580Y-53685332D01*
X97754819Y-52447237D02*
X97754819Y-52351999D01*
X97754819Y-52351999D02*
X97802438Y-52256761D01*
X97802438Y-52256761D02*
X97850057Y-52209142D01*
X97850057Y-52209142D02*
X97945295Y-52161523D01*
X97945295Y-52161523D02*
X98135771Y-52113904D01*
X98135771Y-52113904D02*
X98373866Y-52113904D01*
X98373866Y-52113904D02*
X98564342Y-52161523D01*
X98564342Y-52161523D02*
X98659580Y-52209142D01*
X98659580Y-52209142D02*
X98707200Y-52256761D01*
X98707200Y-52256761D02*
X98754819Y-52351999D01*
X98754819Y-52351999D02*
X98754819Y-52447237D01*
X98754819Y-52447237D02*
X98707200Y-52542475D01*
X98707200Y-52542475D02*
X98659580Y-52590094D01*
X98659580Y-52590094D02*
X98564342Y-52637713D01*
X98564342Y-52637713D02*
X98373866Y-52685332D01*
X98373866Y-52685332D02*
X98135771Y-52685332D01*
X98135771Y-52685332D02*
X97945295Y-52637713D01*
X97945295Y-52637713D02*
X97850057Y-52590094D01*
X97850057Y-52590094D02*
X97802438Y-52542475D01*
X97802438Y-52542475D02*
X97754819Y-52447237D01*
X88751428Y-106861104D02*
X89227618Y-106861104D01*
X88656190Y-107146819D02*
X88989523Y-106146819D01*
X88989523Y-106146819D02*
X89322856Y-107146819D01*
X89799047Y-107146819D02*
X89703809Y-107099200D01*
X89703809Y-107099200D02*
X89656190Y-107003961D01*
X89656190Y-107003961D02*
X89656190Y-106146819D01*
X90608571Y-107146819D02*
X90608571Y-106623009D01*
X90608571Y-106623009D02*
X90560952Y-106527771D01*
X90560952Y-106527771D02*
X90465714Y-106480152D01*
X90465714Y-106480152D02*
X90275238Y-106480152D01*
X90275238Y-106480152D02*
X90180000Y-106527771D01*
X90608571Y-107099200D02*
X90513333Y-107146819D01*
X90513333Y-107146819D02*
X90275238Y-107146819D01*
X90275238Y-107146819D02*
X90180000Y-107099200D01*
X90180000Y-107099200D02*
X90132381Y-107003961D01*
X90132381Y-107003961D02*
X90132381Y-106908723D01*
X90132381Y-106908723D02*
X90180000Y-106813485D01*
X90180000Y-106813485D02*
X90275238Y-106765866D01*
X90275238Y-106765866D02*
X90513333Y-106765866D01*
X90513333Y-106765866D02*
X90608571Y-106718247D01*
X91084762Y-107146819D02*
X91084762Y-106480152D01*
X91084762Y-106670628D02*
X91132381Y-106575390D01*
X91132381Y-106575390D02*
X91180000Y-106527771D01*
X91180000Y-106527771D02*
X91275238Y-106480152D01*
X91275238Y-106480152D02*
X91370476Y-106480152D01*
X91703810Y-107146819D02*
X91703810Y-106480152D01*
X91703810Y-106575390D02*
X91751429Y-106527771D01*
X91751429Y-106527771D02*
X91846667Y-106480152D01*
X91846667Y-106480152D02*
X91989524Y-106480152D01*
X91989524Y-106480152D02*
X92084762Y-106527771D01*
X92084762Y-106527771D02*
X92132381Y-106623009D01*
X92132381Y-106623009D02*
X92132381Y-107146819D01*
X92132381Y-106623009D02*
X92180000Y-106527771D01*
X92180000Y-106527771D02*
X92275238Y-106480152D01*
X92275238Y-106480152D02*
X92418095Y-106480152D01*
X92418095Y-106480152D02*
X92513334Y-106527771D01*
X92513334Y-106527771D02*
X92560953Y-106623009D01*
X92560953Y-106623009D02*
X92560953Y-107146819D01*
X110962819Y-65279904D02*
X111772342Y-65279904D01*
X111772342Y-65279904D02*
X111867580Y-65232285D01*
X111867580Y-65232285D02*
X111915200Y-65184666D01*
X111915200Y-65184666D02*
X111962819Y-65089428D01*
X111962819Y-65089428D02*
X111962819Y-64898952D01*
X111962819Y-64898952D02*
X111915200Y-64803714D01*
X111915200Y-64803714D02*
X111867580Y-64756095D01*
X111867580Y-64756095D02*
X111772342Y-64708476D01*
X111772342Y-64708476D02*
X110962819Y-64708476D01*
X111391390Y-64089428D02*
X111343771Y-64184666D01*
X111343771Y-64184666D02*
X111296152Y-64232285D01*
X111296152Y-64232285D02*
X111200914Y-64279904D01*
X111200914Y-64279904D02*
X111153295Y-64279904D01*
X111153295Y-64279904D02*
X111058057Y-64232285D01*
X111058057Y-64232285D02*
X111010438Y-64184666D01*
X111010438Y-64184666D02*
X110962819Y-64089428D01*
X110962819Y-64089428D02*
X110962819Y-63898952D01*
X110962819Y-63898952D02*
X111010438Y-63803714D01*
X111010438Y-63803714D02*
X111058057Y-63756095D01*
X111058057Y-63756095D02*
X111153295Y-63708476D01*
X111153295Y-63708476D02*
X111200914Y-63708476D01*
X111200914Y-63708476D02*
X111296152Y-63756095D01*
X111296152Y-63756095D02*
X111343771Y-63803714D01*
X111343771Y-63803714D02*
X111391390Y-63898952D01*
X111391390Y-63898952D02*
X111391390Y-64089428D01*
X111391390Y-64089428D02*
X111439009Y-64184666D01*
X111439009Y-64184666D02*
X111486628Y-64232285D01*
X111486628Y-64232285D02*
X111581866Y-64279904D01*
X111581866Y-64279904D02*
X111772342Y-64279904D01*
X111772342Y-64279904D02*
X111867580Y-64232285D01*
X111867580Y-64232285D02*
X111915200Y-64184666D01*
X111915200Y-64184666D02*
X111962819Y-64089428D01*
X111962819Y-64089428D02*
X111962819Y-63898952D01*
X111962819Y-63898952D02*
X111915200Y-63803714D01*
X111915200Y-63803714D02*
X111867580Y-63756095D01*
X111867580Y-63756095D02*
X111772342Y-63708476D01*
X111772342Y-63708476D02*
X111581866Y-63708476D01*
X111581866Y-63708476D02*
X111486628Y-63756095D01*
X111486628Y-63756095D02*
X111439009Y-63803714D01*
X111439009Y-63803714D02*
X111391390Y-63898952D01*
X102818819Y-76437094D02*
X101818819Y-76437094D01*
X101818819Y-76437094D02*
X101818819Y-76198999D01*
X101818819Y-76198999D02*
X101866438Y-76056142D01*
X101866438Y-76056142D02*
X101961676Y-75960904D01*
X101961676Y-75960904D02*
X102056914Y-75913285D01*
X102056914Y-75913285D02*
X102247390Y-75865666D01*
X102247390Y-75865666D02*
X102390247Y-75865666D01*
X102390247Y-75865666D02*
X102580723Y-75913285D01*
X102580723Y-75913285D02*
X102675961Y-75960904D01*
X102675961Y-75960904D02*
X102771200Y-76056142D01*
X102771200Y-76056142D02*
X102818819Y-76198999D01*
X102818819Y-76198999D02*
X102818819Y-76437094D01*
X101818819Y-74960904D02*
X101818819Y-75437094D01*
X101818819Y-75437094D02*
X102295009Y-75484713D01*
X102295009Y-75484713D02*
X102247390Y-75437094D01*
X102247390Y-75437094D02*
X102199771Y-75341856D01*
X102199771Y-75341856D02*
X102199771Y-75103761D01*
X102199771Y-75103761D02*
X102247390Y-75008523D01*
X102247390Y-75008523D02*
X102295009Y-74960904D01*
X102295009Y-74960904D02*
X102390247Y-74913285D01*
X102390247Y-74913285D02*
X102628342Y-74913285D01*
X102628342Y-74913285D02*
X102723580Y-74960904D01*
X102723580Y-74960904D02*
X102771200Y-75008523D01*
X102771200Y-75008523D02*
X102818819Y-75103761D01*
X102818819Y-75103761D02*
X102818819Y-75341856D01*
X102818819Y-75341856D02*
X102771200Y-75437094D01*
X102771200Y-75437094D02*
X102723580Y-75484713D01*
X94706819Y-76989713D02*
X94706819Y-76370666D01*
X94706819Y-76370666D02*
X95087771Y-76703999D01*
X95087771Y-76703999D02*
X95087771Y-76561142D01*
X95087771Y-76561142D02*
X95135390Y-76465904D01*
X95135390Y-76465904D02*
X95183009Y-76418285D01*
X95183009Y-76418285D02*
X95278247Y-76370666D01*
X95278247Y-76370666D02*
X95516342Y-76370666D01*
X95516342Y-76370666D02*
X95611580Y-76418285D01*
X95611580Y-76418285D02*
X95659200Y-76465904D01*
X95659200Y-76465904D02*
X95706819Y-76561142D01*
X95706819Y-76561142D02*
X95706819Y-76846856D01*
X95706819Y-76846856D02*
X95659200Y-76942094D01*
X95659200Y-76942094D02*
X95611580Y-76989713D01*
X94706819Y-76037332D02*
X94706819Y-75418285D01*
X94706819Y-75418285D02*
X95087771Y-75751618D01*
X95087771Y-75751618D02*
X95087771Y-75608761D01*
X95087771Y-75608761D02*
X95135390Y-75513523D01*
X95135390Y-75513523D02*
X95183009Y-75465904D01*
X95183009Y-75465904D02*
X95278247Y-75418285D01*
X95278247Y-75418285D02*
X95516342Y-75418285D01*
X95516342Y-75418285D02*
X95611580Y-75465904D01*
X95611580Y-75465904D02*
X95659200Y-75513523D01*
X95659200Y-75513523D02*
X95706819Y-75608761D01*
X95706819Y-75608761D02*
X95706819Y-75894475D01*
X95706819Y-75894475D02*
X95659200Y-75989713D01*
X95659200Y-75989713D02*
X95611580Y-76037332D01*
X94706819Y-74799237D02*
X94706819Y-74703999D01*
X94706819Y-74703999D02*
X94754438Y-74608761D01*
X94754438Y-74608761D02*
X94802057Y-74561142D01*
X94802057Y-74561142D02*
X94897295Y-74513523D01*
X94897295Y-74513523D02*
X95087771Y-74465904D01*
X95087771Y-74465904D02*
X95325866Y-74465904D01*
X95325866Y-74465904D02*
X95516342Y-74513523D01*
X95516342Y-74513523D02*
X95611580Y-74561142D01*
X95611580Y-74561142D02*
X95659200Y-74608761D01*
X95659200Y-74608761D02*
X95706819Y-74703999D01*
X95706819Y-74703999D02*
X95706819Y-74799237D01*
X95706819Y-74799237D02*
X95659200Y-74894475D01*
X95659200Y-74894475D02*
X95611580Y-74942094D01*
X95611580Y-74942094D02*
X95516342Y-74989713D01*
X95516342Y-74989713D02*
X95325866Y-75037332D01*
X95325866Y-75037332D02*
X95087771Y-75037332D01*
X95087771Y-75037332D02*
X94897295Y-74989713D01*
X94897295Y-74989713D02*
X94802057Y-74942094D01*
X94802057Y-74942094D02*
X94754438Y-74894475D01*
X94754438Y-74894475D02*
X94706819Y-74799237D01*
X110962819Y-87631904D02*
X111772342Y-87631904D01*
X111772342Y-87631904D02*
X111867580Y-87584285D01*
X111867580Y-87584285D02*
X111915200Y-87536666D01*
X111915200Y-87536666D02*
X111962819Y-87441428D01*
X111962819Y-87441428D02*
X111962819Y-87250952D01*
X111962819Y-87250952D02*
X111915200Y-87155714D01*
X111915200Y-87155714D02*
X111867580Y-87108095D01*
X111867580Y-87108095D02*
X111772342Y-87060476D01*
X111772342Y-87060476D02*
X110962819Y-87060476D01*
X111962819Y-86060476D02*
X111962819Y-86631904D01*
X111962819Y-86346190D02*
X110962819Y-86346190D01*
X110962819Y-86346190D02*
X111105676Y-86441428D01*
X111105676Y-86441428D02*
X111200914Y-86536666D01*
X111200914Y-86536666D02*
X111248533Y-86631904D01*
X74482819Y-64742285D02*
X74482819Y-65313713D01*
X74482819Y-65027999D02*
X73482819Y-65027999D01*
X73482819Y-65027999D02*
X73625676Y-65123237D01*
X73625676Y-65123237D02*
X73720914Y-65218475D01*
X73720914Y-65218475D02*
X73768533Y-65313713D01*
X74482819Y-64313713D02*
X73482819Y-64313713D01*
X74482819Y-63742285D02*
X73911390Y-64170856D01*
X73482819Y-63742285D02*
X74054247Y-64313713D01*
X97754819Y-88165713D02*
X97754819Y-87546666D01*
X97754819Y-87546666D02*
X98135771Y-87879999D01*
X98135771Y-87879999D02*
X98135771Y-87737142D01*
X98135771Y-87737142D02*
X98183390Y-87641904D01*
X98183390Y-87641904D02*
X98231009Y-87594285D01*
X98231009Y-87594285D02*
X98326247Y-87546666D01*
X98326247Y-87546666D02*
X98564342Y-87546666D01*
X98564342Y-87546666D02*
X98659580Y-87594285D01*
X98659580Y-87594285D02*
X98707200Y-87641904D01*
X98707200Y-87641904D02*
X98754819Y-87737142D01*
X98754819Y-87737142D02*
X98754819Y-88022856D01*
X98754819Y-88022856D02*
X98707200Y-88118094D01*
X98707200Y-88118094D02*
X98659580Y-88165713D01*
X97754819Y-87213332D02*
X97754819Y-86594285D01*
X97754819Y-86594285D02*
X98135771Y-86927618D01*
X98135771Y-86927618D02*
X98135771Y-86784761D01*
X98135771Y-86784761D02*
X98183390Y-86689523D01*
X98183390Y-86689523D02*
X98231009Y-86641904D01*
X98231009Y-86641904D02*
X98326247Y-86594285D01*
X98326247Y-86594285D02*
X98564342Y-86594285D01*
X98564342Y-86594285D02*
X98659580Y-86641904D01*
X98659580Y-86641904D02*
X98707200Y-86689523D01*
X98707200Y-86689523D02*
X98754819Y-86784761D01*
X98754819Y-86784761D02*
X98754819Y-87070475D01*
X98754819Y-87070475D02*
X98707200Y-87165713D01*
X98707200Y-87165713D02*
X98659580Y-87213332D01*
X97754819Y-85975237D02*
X97754819Y-85879999D01*
X97754819Y-85879999D02*
X97802438Y-85784761D01*
X97802438Y-85784761D02*
X97850057Y-85737142D01*
X97850057Y-85737142D02*
X97945295Y-85689523D01*
X97945295Y-85689523D02*
X98135771Y-85641904D01*
X98135771Y-85641904D02*
X98373866Y-85641904D01*
X98373866Y-85641904D02*
X98564342Y-85689523D01*
X98564342Y-85689523D02*
X98659580Y-85737142D01*
X98659580Y-85737142D02*
X98707200Y-85784761D01*
X98707200Y-85784761D02*
X98754819Y-85879999D01*
X98754819Y-85879999D02*
X98754819Y-85975237D01*
X98754819Y-85975237D02*
X98707200Y-86070475D01*
X98707200Y-86070475D02*
X98659580Y-86118094D01*
X98659580Y-86118094D02*
X98564342Y-86165713D01*
X98564342Y-86165713D02*
X98373866Y-86213332D01*
X98373866Y-86213332D02*
X98135771Y-86213332D01*
X98135771Y-86213332D02*
X97945295Y-86165713D01*
X97945295Y-86165713D02*
X97850057Y-86118094D01*
X97850057Y-86118094D02*
X97802438Y-86070475D01*
X97802438Y-86070475D02*
X97754819Y-85975237D01*
X135330819Y-88594285D02*
X134330819Y-88594285D01*
X134330819Y-88594285D02*
X135045104Y-88260952D01*
X135045104Y-88260952D02*
X134330819Y-87927619D01*
X134330819Y-87927619D02*
X135330819Y-87927619D01*
X135330819Y-87022857D02*
X134807009Y-87022857D01*
X134807009Y-87022857D02*
X134711771Y-87070476D01*
X134711771Y-87070476D02*
X134664152Y-87165714D01*
X134664152Y-87165714D02*
X134664152Y-87356190D01*
X134664152Y-87356190D02*
X134711771Y-87451428D01*
X135283200Y-87022857D02*
X135330819Y-87118095D01*
X135330819Y-87118095D02*
X135330819Y-87356190D01*
X135330819Y-87356190D02*
X135283200Y-87451428D01*
X135283200Y-87451428D02*
X135187961Y-87499047D01*
X135187961Y-87499047D02*
X135092723Y-87499047D01*
X135092723Y-87499047D02*
X134997485Y-87451428D01*
X134997485Y-87451428D02*
X134949866Y-87356190D01*
X134949866Y-87356190D02*
X134949866Y-87118095D01*
X134949866Y-87118095D02*
X134902247Y-87022857D01*
X134664152Y-86118095D02*
X135473676Y-86118095D01*
X135473676Y-86118095D02*
X135568914Y-86165714D01*
X135568914Y-86165714D02*
X135616533Y-86213333D01*
X135616533Y-86213333D02*
X135664152Y-86308571D01*
X135664152Y-86308571D02*
X135664152Y-86451428D01*
X135664152Y-86451428D02*
X135616533Y-86546666D01*
X135283200Y-86118095D02*
X135330819Y-86213333D01*
X135330819Y-86213333D02*
X135330819Y-86403809D01*
X135330819Y-86403809D02*
X135283200Y-86499047D01*
X135283200Y-86499047D02*
X135235580Y-86546666D01*
X135235580Y-86546666D02*
X135140342Y-86594285D01*
X135140342Y-86594285D02*
X134854628Y-86594285D01*
X134854628Y-86594285D02*
X134759390Y-86546666D01*
X134759390Y-86546666D02*
X134711771Y-86499047D01*
X134711771Y-86499047D02*
X134664152Y-86403809D01*
X134664152Y-86403809D02*
X134664152Y-86213333D01*
X134664152Y-86213333D02*
X134711771Y-86118095D01*
X135330819Y-85118095D02*
X135330819Y-85689523D01*
X135330819Y-85403809D02*
X134330819Y-85403809D01*
X134330819Y-85403809D02*
X134473676Y-85499047D01*
X134473676Y-85499047D02*
X134568914Y-85594285D01*
X134568914Y-85594285D02*
X134616533Y-85689523D01*
X91642819Y-65525094D02*
X90642819Y-65525094D01*
X90642819Y-65525094D02*
X90642819Y-65286999D01*
X90642819Y-65286999D02*
X90690438Y-65144142D01*
X90690438Y-65144142D02*
X90785676Y-65048904D01*
X90785676Y-65048904D02*
X90880914Y-65001285D01*
X90880914Y-65001285D02*
X91071390Y-64953666D01*
X91071390Y-64953666D02*
X91214247Y-64953666D01*
X91214247Y-64953666D02*
X91404723Y-65001285D01*
X91404723Y-65001285D02*
X91499961Y-65048904D01*
X91499961Y-65048904D02*
X91595200Y-65144142D01*
X91595200Y-65144142D02*
X91642819Y-65286999D01*
X91642819Y-65286999D02*
X91642819Y-65525094D01*
X90642819Y-64620332D02*
X90642819Y-63953666D01*
X90642819Y-63953666D02*
X91642819Y-64382237D01*
X99879809Y-107146819D02*
X99879809Y-106146819D01*
X99879809Y-106146819D02*
X100260761Y-106146819D01*
X100260761Y-106146819D02*
X100355999Y-106194438D01*
X100355999Y-106194438D02*
X100403618Y-106242057D01*
X100403618Y-106242057D02*
X100451237Y-106337295D01*
X100451237Y-106337295D02*
X100451237Y-106480152D01*
X100451237Y-106480152D02*
X100403618Y-106575390D01*
X100403618Y-106575390D02*
X100355999Y-106623009D01*
X100355999Y-106623009D02*
X100260761Y-106670628D01*
X100260761Y-106670628D02*
X99879809Y-106670628D01*
X101022666Y-107146819D02*
X100927428Y-107099200D01*
X100927428Y-107099200D02*
X100879809Y-107051580D01*
X100879809Y-107051580D02*
X100832190Y-106956342D01*
X100832190Y-106956342D02*
X100832190Y-106670628D01*
X100832190Y-106670628D02*
X100879809Y-106575390D01*
X100879809Y-106575390D02*
X100927428Y-106527771D01*
X100927428Y-106527771D02*
X101022666Y-106480152D01*
X101022666Y-106480152D02*
X101165523Y-106480152D01*
X101165523Y-106480152D02*
X101260761Y-106527771D01*
X101260761Y-106527771D02*
X101308380Y-106575390D01*
X101308380Y-106575390D02*
X101355999Y-106670628D01*
X101355999Y-106670628D02*
X101355999Y-106956342D01*
X101355999Y-106956342D02*
X101308380Y-107051580D01*
X101308380Y-107051580D02*
X101260761Y-107099200D01*
X101260761Y-107099200D02*
X101165523Y-107146819D01*
X101165523Y-107146819D02*
X101022666Y-107146819D01*
X101689333Y-106480152D02*
X101879809Y-107146819D01*
X101879809Y-107146819D02*
X102070285Y-106670628D01*
X102070285Y-106670628D02*
X102260761Y-107146819D01*
X102260761Y-107146819D02*
X102451237Y-106480152D01*
X103213142Y-107099200D02*
X103117904Y-107146819D01*
X103117904Y-107146819D02*
X102927428Y-107146819D01*
X102927428Y-107146819D02*
X102832190Y-107099200D01*
X102832190Y-107099200D02*
X102784571Y-107003961D01*
X102784571Y-107003961D02*
X102784571Y-106623009D01*
X102784571Y-106623009D02*
X102832190Y-106527771D01*
X102832190Y-106527771D02*
X102927428Y-106480152D01*
X102927428Y-106480152D02*
X103117904Y-106480152D01*
X103117904Y-106480152D02*
X103213142Y-106527771D01*
X103213142Y-106527771D02*
X103260761Y-106623009D01*
X103260761Y-106623009D02*
X103260761Y-106718247D01*
X103260761Y-106718247D02*
X102784571Y-106813485D01*
X103689333Y-107146819D02*
X103689333Y-106480152D01*
X103689333Y-106670628D02*
X103736952Y-106575390D01*
X103736952Y-106575390D02*
X103784571Y-106527771D01*
X103784571Y-106527771D02*
X103879809Y-106480152D01*
X103879809Y-106480152D02*
X103975047Y-106480152D01*
X102818819Y-87359094D02*
X101818819Y-87359094D01*
X101818819Y-87359094D02*
X101818819Y-87120999D01*
X101818819Y-87120999D02*
X101866438Y-86978142D01*
X101866438Y-86978142D02*
X101961676Y-86882904D01*
X101961676Y-86882904D02*
X102056914Y-86835285D01*
X102056914Y-86835285D02*
X102247390Y-86787666D01*
X102247390Y-86787666D02*
X102390247Y-86787666D01*
X102390247Y-86787666D02*
X102580723Y-86835285D01*
X102580723Y-86835285D02*
X102675961Y-86882904D01*
X102675961Y-86882904D02*
X102771200Y-86978142D01*
X102771200Y-86978142D02*
X102818819Y-87120999D01*
X102818819Y-87120999D02*
X102818819Y-87359094D01*
X101914057Y-86406713D02*
X101866438Y-86359094D01*
X101866438Y-86359094D02*
X101818819Y-86263856D01*
X101818819Y-86263856D02*
X101818819Y-86025761D01*
X101818819Y-86025761D02*
X101866438Y-85930523D01*
X101866438Y-85930523D02*
X101914057Y-85882904D01*
X101914057Y-85882904D02*
X102009295Y-85835285D01*
X102009295Y-85835285D02*
X102104533Y-85835285D01*
X102104533Y-85835285D02*
X102247390Y-85882904D01*
X102247390Y-85882904D02*
X102818819Y-86454332D01*
X102818819Y-86454332D02*
X102818819Y-85835285D01*
X97754819Y-76989713D02*
X97754819Y-76370666D01*
X97754819Y-76370666D02*
X98135771Y-76703999D01*
X98135771Y-76703999D02*
X98135771Y-76561142D01*
X98135771Y-76561142D02*
X98183390Y-76465904D01*
X98183390Y-76465904D02*
X98231009Y-76418285D01*
X98231009Y-76418285D02*
X98326247Y-76370666D01*
X98326247Y-76370666D02*
X98564342Y-76370666D01*
X98564342Y-76370666D02*
X98659580Y-76418285D01*
X98659580Y-76418285D02*
X98707200Y-76465904D01*
X98707200Y-76465904D02*
X98754819Y-76561142D01*
X98754819Y-76561142D02*
X98754819Y-76846856D01*
X98754819Y-76846856D02*
X98707200Y-76942094D01*
X98707200Y-76942094D02*
X98659580Y-76989713D01*
X97754819Y-76037332D02*
X97754819Y-75418285D01*
X97754819Y-75418285D02*
X98135771Y-75751618D01*
X98135771Y-75751618D02*
X98135771Y-75608761D01*
X98135771Y-75608761D02*
X98183390Y-75513523D01*
X98183390Y-75513523D02*
X98231009Y-75465904D01*
X98231009Y-75465904D02*
X98326247Y-75418285D01*
X98326247Y-75418285D02*
X98564342Y-75418285D01*
X98564342Y-75418285D02*
X98659580Y-75465904D01*
X98659580Y-75465904D02*
X98707200Y-75513523D01*
X98707200Y-75513523D02*
X98754819Y-75608761D01*
X98754819Y-75608761D02*
X98754819Y-75894475D01*
X98754819Y-75894475D02*
X98707200Y-75989713D01*
X98707200Y-75989713D02*
X98659580Y-76037332D01*
X97754819Y-74799237D02*
X97754819Y-74703999D01*
X97754819Y-74703999D02*
X97802438Y-74608761D01*
X97802438Y-74608761D02*
X97850057Y-74561142D01*
X97850057Y-74561142D02*
X97945295Y-74513523D01*
X97945295Y-74513523D02*
X98135771Y-74465904D01*
X98135771Y-74465904D02*
X98373866Y-74465904D01*
X98373866Y-74465904D02*
X98564342Y-74513523D01*
X98564342Y-74513523D02*
X98659580Y-74561142D01*
X98659580Y-74561142D02*
X98707200Y-74608761D01*
X98707200Y-74608761D02*
X98754819Y-74703999D01*
X98754819Y-74703999D02*
X98754819Y-74799237D01*
X98754819Y-74799237D02*
X98707200Y-74894475D01*
X98707200Y-74894475D02*
X98659580Y-74942094D01*
X98659580Y-74942094D02*
X98564342Y-74989713D01*
X98564342Y-74989713D02*
X98373866Y-75037332D01*
X98373866Y-75037332D02*
X98135771Y-75037332D01*
X98135771Y-75037332D02*
X97945295Y-74989713D01*
X97945295Y-74989713D02*
X97850057Y-74942094D01*
X97850057Y-74942094D02*
X97802438Y-74894475D01*
X97802438Y-74894475D02*
X97754819Y-74799237D01*
X110962819Y-54103904D02*
X111772342Y-54103904D01*
X111772342Y-54103904D02*
X111867580Y-54056285D01*
X111867580Y-54056285D02*
X111915200Y-54008666D01*
X111915200Y-54008666D02*
X111962819Y-53913428D01*
X111962819Y-53913428D02*
X111962819Y-53722952D01*
X111962819Y-53722952D02*
X111915200Y-53627714D01*
X111915200Y-53627714D02*
X111867580Y-53580095D01*
X111867580Y-53580095D02*
X111772342Y-53532476D01*
X111772342Y-53532476D02*
X110962819Y-53532476D01*
X111058057Y-53103904D02*
X111010438Y-53056285D01*
X111010438Y-53056285D02*
X110962819Y-52961047D01*
X110962819Y-52961047D02*
X110962819Y-52722952D01*
X110962819Y-52722952D02*
X111010438Y-52627714D01*
X111010438Y-52627714D02*
X111058057Y-52580095D01*
X111058057Y-52580095D02*
X111153295Y-52532476D01*
X111153295Y-52532476D02*
X111248533Y-52532476D01*
X111248533Y-52532476D02*
X111391390Y-52580095D01*
X111391390Y-52580095D02*
X111962819Y-53151523D01*
X111962819Y-53151523D02*
X111962819Y-52532476D01*
X135330819Y-66242285D02*
X134330819Y-66242285D01*
X134330819Y-66242285D02*
X135045104Y-65908952D01*
X135045104Y-65908952D02*
X134330819Y-65575619D01*
X134330819Y-65575619D02*
X135330819Y-65575619D01*
X135330819Y-64670857D02*
X134807009Y-64670857D01*
X134807009Y-64670857D02*
X134711771Y-64718476D01*
X134711771Y-64718476D02*
X134664152Y-64813714D01*
X134664152Y-64813714D02*
X134664152Y-65004190D01*
X134664152Y-65004190D02*
X134711771Y-65099428D01*
X135283200Y-64670857D02*
X135330819Y-64766095D01*
X135330819Y-64766095D02*
X135330819Y-65004190D01*
X135330819Y-65004190D02*
X135283200Y-65099428D01*
X135283200Y-65099428D02*
X135187961Y-65147047D01*
X135187961Y-65147047D02*
X135092723Y-65147047D01*
X135092723Y-65147047D02*
X134997485Y-65099428D01*
X134997485Y-65099428D02*
X134949866Y-65004190D01*
X134949866Y-65004190D02*
X134949866Y-64766095D01*
X134949866Y-64766095D02*
X134902247Y-64670857D01*
X134664152Y-63766095D02*
X135473676Y-63766095D01*
X135473676Y-63766095D02*
X135568914Y-63813714D01*
X135568914Y-63813714D02*
X135616533Y-63861333D01*
X135616533Y-63861333D02*
X135664152Y-63956571D01*
X135664152Y-63956571D02*
X135664152Y-64099428D01*
X135664152Y-64099428D02*
X135616533Y-64194666D01*
X135283200Y-63766095D02*
X135330819Y-63861333D01*
X135330819Y-63861333D02*
X135330819Y-64051809D01*
X135330819Y-64051809D02*
X135283200Y-64147047D01*
X135283200Y-64147047D02*
X135235580Y-64194666D01*
X135235580Y-64194666D02*
X135140342Y-64242285D01*
X135140342Y-64242285D02*
X134854628Y-64242285D01*
X134854628Y-64242285D02*
X134759390Y-64194666D01*
X134759390Y-64194666D02*
X134711771Y-64147047D01*
X134711771Y-64147047D02*
X134664152Y-64051809D01*
X134664152Y-64051809D02*
X134664152Y-63861333D01*
X134664152Y-63861333D02*
X134711771Y-63766095D01*
X134330819Y-63385142D02*
X134330819Y-62766095D01*
X134330819Y-62766095D02*
X134711771Y-63099428D01*
X134711771Y-63099428D02*
X134711771Y-62956571D01*
X134711771Y-62956571D02*
X134759390Y-62861333D01*
X134759390Y-62861333D02*
X134807009Y-62813714D01*
X134807009Y-62813714D02*
X134902247Y-62766095D01*
X134902247Y-62766095D02*
X135140342Y-62766095D01*
X135140342Y-62766095D02*
X135235580Y-62813714D01*
X135235580Y-62813714D02*
X135283200Y-62861333D01*
X135283200Y-62861333D02*
X135330819Y-62956571D01*
X135330819Y-62956571D02*
X135330819Y-63242285D01*
X135330819Y-63242285D02*
X135283200Y-63337523D01*
X135283200Y-63337523D02*
X135235580Y-63385142D01*
X102818819Y-65007094D02*
X101818819Y-65007094D01*
X101818819Y-65007094D02*
X101818819Y-64768999D01*
X101818819Y-64768999D02*
X101866438Y-64626142D01*
X101866438Y-64626142D02*
X101961676Y-64530904D01*
X101961676Y-64530904D02*
X102056914Y-64483285D01*
X102056914Y-64483285D02*
X102247390Y-64435666D01*
X102247390Y-64435666D02*
X102390247Y-64435666D01*
X102390247Y-64435666D02*
X102580723Y-64483285D01*
X102580723Y-64483285D02*
X102675961Y-64530904D01*
X102675961Y-64530904D02*
X102771200Y-64626142D01*
X102771200Y-64626142D02*
X102818819Y-64768999D01*
X102818819Y-64768999D02*
X102818819Y-65007094D01*
X102247390Y-63864237D02*
X102199771Y-63959475D01*
X102199771Y-63959475D02*
X102152152Y-64007094D01*
X102152152Y-64007094D02*
X102056914Y-64054713D01*
X102056914Y-64054713D02*
X102009295Y-64054713D01*
X102009295Y-64054713D02*
X101914057Y-64007094D01*
X101914057Y-64007094D02*
X101866438Y-63959475D01*
X101866438Y-63959475D02*
X101818819Y-63864237D01*
X101818819Y-63864237D02*
X101818819Y-63673761D01*
X101818819Y-63673761D02*
X101866438Y-63578523D01*
X101866438Y-63578523D02*
X101914057Y-63530904D01*
X101914057Y-63530904D02*
X102009295Y-63483285D01*
X102009295Y-63483285D02*
X102056914Y-63483285D01*
X102056914Y-63483285D02*
X102152152Y-63530904D01*
X102152152Y-63530904D02*
X102199771Y-63578523D01*
X102199771Y-63578523D02*
X102247390Y-63673761D01*
X102247390Y-63673761D02*
X102247390Y-63864237D01*
X102247390Y-63864237D02*
X102295009Y-63959475D01*
X102295009Y-63959475D02*
X102342628Y-64007094D01*
X102342628Y-64007094D02*
X102437866Y-64054713D01*
X102437866Y-64054713D02*
X102628342Y-64054713D01*
X102628342Y-64054713D02*
X102723580Y-64007094D01*
X102723580Y-64007094D02*
X102771200Y-63959475D01*
X102771200Y-63959475D02*
X102818819Y-63864237D01*
X102818819Y-63864237D02*
X102818819Y-63673761D01*
X102818819Y-63673761D02*
X102771200Y-63578523D01*
X102771200Y-63578523D02*
X102723580Y-63530904D01*
X102723580Y-63530904D02*
X102628342Y-63483285D01*
X102628342Y-63483285D02*
X102437866Y-63483285D01*
X102437866Y-63483285D02*
X102342628Y-63530904D01*
X102342628Y-63530904D02*
X102295009Y-63578523D01*
X102295009Y-63578523D02*
X102247390Y-63673761D01*
X135330819Y-77418285D02*
X134330819Y-77418285D01*
X134330819Y-77418285D02*
X135045104Y-77084952D01*
X135045104Y-77084952D02*
X134330819Y-76751619D01*
X134330819Y-76751619D02*
X135330819Y-76751619D01*
X135330819Y-75846857D02*
X134807009Y-75846857D01*
X134807009Y-75846857D02*
X134711771Y-75894476D01*
X134711771Y-75894476D02*
X134664152Y-75989714D01*
X134664152Y-75989714D02*
X134664152Y-76180190D01*
X134664152Y-76180190D02*
X134711771Y-76275428D01*
X135283200Y-75846857D02*
X135330819Y-75942095D01*
X135330819Y-75942095D02*
X135330819Y-76180190D01*
X135330819Y-76180190D02*
X135283200Y-76275428D01*
X135283200Y-76275428D02*
X135187961Y-76323047D01*
X135187961Y-76323047D02*
X135092723Y-76323047D01*
X135092723Y-76323047D02*
X134997485Y-76275428D01*
X134997485Y-76275428D02*
X134949866Y-76180190D01*
X134949866Y-76180190D02*
X134949866Y-75942095D01*
X134949866Y-75942095D02*
X134902247Y-75846857D01*
X134664152Y-74942095D02*
X135473676Y-74942095D01*
X135473676Y-74942095D02*
X135568914Y-74989714D01*
X135568914Y-74989714D02*
X135616533Y-75037333D01*
X135616533Y-75037333D02*
X135664152Y-75132571D01*
X135664152Y-75132571D02*
X135664152Y-75275428D01*
X135664152Y-75275428D02*
X135616533Y-75370666D01*
X135283200Y-74942095D02*
X135330819Y-75037333D01*
X135330819Y-75037333D02*
X135330819Y-75227809D01*
X135330819Y-75227809D02*
X135283200Y-75323047D01*
X135283200Y-75323047D02*
X135235580Y-75370666D01*
X135235580Y-75370666D02*
X135140342Y-75418285D01*
X135140342Y-75418285D02*
X134854628Y-75418285D01*
X134854628Y-75418285D02*
X134759390Y-75370666D01*
X134759390Y-75370666D02*
X134711771Y-75323047D01*
X134711771Y-75323047D02*
X134664152Y-75227809D01*
X134664152Y-75227809D02*
X134664152Y-75037333D01*
X134664152Y-75037333D02*
X134711771Y-74942095D01*
X134426057Y-74513523D02*
X134378438Y-74465904D01*
X134378438Y-74465904D02*
X134330819Y-74370666D01*
X134330819Y-74370666D02*
X134330819Y-74132571D01*
X134330819Y-74132571D02*
X134378438Y-74037333D01*
X134378438Y-74037333D02*
X134426057Y-73989714D01*
X134426057Y-73989714D02*
X134521295Y-73942095D01*
X134521295Y-73942095D02*
X134616533Y-73942095D01*
X134616533Y-73942095D02*
X134759390Y-73989714D01*
X134759390Y-73989714D02*
X135330819Y-74561142D01*
X135330819Y-74561142D02*
X135330819Y-73942095D01*
X111597905Y-94972319D02*
X111597905Y-93972319D01*
X111597905Y-93972319D02*
X111836000Y-93972319D01*
X111836000Y-93972319D02*
X111978857Y-94019938D01*
X111978857Y-94019938D02*
X112074095Y-94115176D01*
X112074095Y-94115176D02*
X112121714Y-94210414D01*
X112121714Y-94210414D02*
X112169333Y-94400890D01*
X112169333Y-94400890D02*
X112169333Y-94543747D01*
X112169333Y-94543747D02*
X112121714Y-94734223D01*
X112121714Y-94734223D02*
X112074095Y-94829461D01*
X112074095Y-94829461D02*
X111978857Y-94924700D01*
X111978857Y-94924700D02*
X111836000Y-94972319D01*
X111836000Y-94972319D02*
X111597905Y-94972319D01*
X113121714Y-94972319D02*
X112550286Y-94972319D01*
X112836000Y-94972319D02*
X112836000Y-93972319D01*
X112836000Y-93972319D02*
X112740762Y-94115176D01*
X112740762Y-94115176D02*
X112645524Y-94210414D01*
X112645524Y-94210414D02*
X112550286Y-94258033D01*
X74482819Y-75918285D02*
X74482819Y-76489713D01*
X74482819Y-76203999D02*
X73482819Y-76203999D01*
X73482819Y-76203999D02*
X73625676Y-76299237D01*
X73625676Y-76299237D02*
X73720914Y-76394475D01*
X73720914Y-76394475D02*
X73768533Y-76489713D01*
X74482819Y-75489713D02*
X73482819Y-75489713D01*
X74482819Y-74918285D02*
X73911390Y-75346856D01*
X73482819Y-74918285D02*
X74054247Y-75489713D01*
X81774286Y-98018819D02*
X82393333Y-98018819D01*
X82393333Y-98018819D02*
X82060000Y-98399771D01*
X82060000Y-98399771D02*
X82202857Y-98399771D01*
X82202857Y-98399771D02*
X82298095Y-98447390D01*
X82298095Y-98447390D02*
X82345714Y-98495009D01*
X82345714Y-98495009D02*
X82393333Y-98590247D01*
X82393333Y-98590247D02*
X82393333Y-98828342D01*
X82393333Y-98828342D02*
X82345714Y-98923580D01*
X82345714Y-98923580D02*
X82298095Y-98971200D01*
X82298095Y-98971200D02*
X82202857Y-99018819D01*
X82202857Y-99018819D02*
X81917143Y-99018819D01*
X81917143Y-99018819D02*
X81821905Y-98971200D01*
X81821905Y-98971200D02*
X81774286Y-98923580D01*
X82726667Y-98018819D02*
X83345714Y-98018819D01*
X83345714Y-98018819D02*
X83012381Y-98399771D01*
X83012381Y-98399771D02*
X83155238Y-98399771D01*
X83155238Y-98399771D02*
X83250476Y-98447390D01*
X83250476Y-98447390D02*
X83298095Y-98495009D01*
X83298095Y-98495009D02*
X83345714Y-98590247D01*
X83345714Y-98590247D02*
X83345714Y-98828342D01*
X83345714Y-98828342D02*
X83298095Y-98923580D01*
X83298095Y-98923580D02*
X83250476Y-98971200D01*
X83250476Y-98971200D02*
X83155238Y-99018819D01*
X83155238Y-99018819D02*
X82869524Y-99018819D01*
X82869524Y-99018819D02*
X82774286Y-98971200D01*
X82774286Y-98971200D02*
X82726667Y-98923580D01*
X83964762Y-98018819D02*
X84060000Y-98018819D01*
X84060000Y-98018819D02*
X84155238Y-98066438D01*
X84155238Y-98066438D02*
X84202857Y-98114057D01*
X84202857Y-98114057D02*
X84250476Y-98209295D01*
X84250476Y-98209295D02*
X84298095Y-98399771D01*
X84298095Y-98399771D02*
X84298095Y-98637866D01*
X84298095Y-98637866D02*
X84250476Y-98828342D01*
X84250476Y-98828342D02*
X84202857Y-98923580D01*
X84202857Y-98923580D02*
X84155238Y-98971200D01*
X84155238Y-98971200D02*
X84060000Y-99018819D01*
X84060000Y-99018819D02*
X83964762Y-99018819D01*
X83964762Y-99018819D02*
X83869524Y-98971200D01*
X83869524Y-98971200D02*
X83821905Y-98923580D01*
X83821905Y-98923580D02*
X83774286Y-98828342D01*
X83774286Y-98828342D02*
X83726667Y-98637866D01*
X83726667Y-98637866D02*
X83726667Y-98399771D01*
X83726667Y-98399771D02*
X83774286Y-98209295D01*
X83774286Y-98209295D02*
X83821905Y-98114057D01*
X83821905Y-98114057D02*
X83869524Y-98066438D01*
X83869524Y-98066438D02*
X83964762Y-98018819D01*
X91642819Y-87623094D02*
X90642819Y-87623094D01*
X90642819Y-87623094D02*
X90642819Y-87384999D01*
X90642819Y-87384999D02*
X90690438Y-87242142D01*
X90690438Y-87242142D02*
X90785676Y-87146904D01*
X90785676Y-87146904D02*
X90880914Y-87099285D01*
X90880914Y-87099285D02*
X91071390Y-87051666D01*
X91071390Y-87051666D02*
X91214247Y-87051666D01*
X91214247Y-87051666D02*
X91404723Y-87099285D01*
X91404723Y-87099285D02*
X91499961Y-87146904D01*
X91499961Y-87146904D02*
X91595200Y-87242142D01*
X91595200Y-87242142D02*
X91642819Y-87384999D01*
X91642819Y-87384999D02*
X91642819Y-87623094D01*
X91642819Y-86575475D02*
X91642819Y-86384999D01*
X91642819Y-86384999D02*
X91595200Y-86289761D01*
X91595200Y-86289761D02*
X91547580Y-86242142D01*
X91547580Y-86242142D02*
X91404723Y-86146904D01*
X91404723Y-86146904D02*
X91214247Y-86099285D01*
X91214247Y-86099285D02*
X90833295Y-86099285D01*
X90833295Y-86099285D02*
X90738057Y-86146904D01*
X90738057Y-86146904D02*
X90690438Y-86194523D01*
X90690438Y-86194523D02*
X90642819Y-86289761D01*
X90642819Y-86289761D02*
X90642819Y-86480237D01*
X90642819Y-86480237D02*
X90690438Y-86575475D01*
X90690438Y-86575475D02*
X90738057Y-86623094D01*
X90738057Y-86623094D02*
X90833295Y-86670713D01*
X90833295Y-86670713D02*
X91071390Y-86670713D01*
X91071390Y-86670713D02*
X91166628Y-86623094D01*
X91166628Y-86623094D02*
X91214247Y-86575475D01*
X91214247Y-86575475D02*
X91261866Y-86480237D01*
X91261866Y-86480237D02*
X91261866Y-86289761D01*
X91261866Y-86289761D02*
X91214247Y-86194523D01*
X91214247Y-86194523D02*
X91166628Y-86146904D01*
X91166628Y-86146904D02*
X91071390Y-86099285D01*
X118962819Y-87094285D02*
X118962819Y-87665713D01*
X118962819Y-87379999D02*
X117962819Y-87379999D01*
X117962819Y-87379999D02*
X118105676Y-87475237D01*
X118105676Y-87475237D02*
X118200914Y-87570475D01*
X118200914Y-87570475D02*
X118248533Y-87665713D01*
X118962819Y-86665713D02*
X117962819Y-86665713D01*
X118962819Y-86094285D02*
X118391390Y-86522856D01*
X117962819Y-86094285D02*
X118534247Y-86665713D01*
X57591009Y-89022857D02*
X57591009Y-88689524D01*
X58114819Y-88546667D02*
X58114819Y-89022857D01*
X58114819Y-89022857D02*
X57114819Y-89022857D01*
X57114819Y-89022857D02*
X57114819Y-88546667D01*
X58114819Y-88213333D02*
X57448152Y-87689524D01*
X57448152Y-88213333D02*
X58114819Y-87689524D01*
X57448152Y-87451428D02*
X57448152Y-87070476D01*
X57114819Y-87308571D02*
X57971961Y-87308571D01*
X57971961Y-87308571D02*
X58067200Y-87260952D01*
X58067200Y-87260952D02*
X58114819Y-87165714D01*
X58114819Y-87165714D02*
X58114819Y-87070476D01*
X58114819Y-86737142D02*
X57448152Y-86737142D01*
X57638628Y-86737142D02*
X57543390Y-86689523D01*
X57543390Y-86689523D02*
X57495771Y-86641904D01*
X57495771Y-86641904D02*
X57448152Y-86546666D01*
X57448152Y-86546666D02*
X57448152Y-86451428D01*
X58114819Y-85689523D02*
X57591009Y-85689523D01*
X57591009Y-85689523D02*
X57495771Y-85737142D01*
X57495771Y-85737142D02*
X57448152Y-85832380D01*
X57448152Y-85832380D02*
X57448152Y-86022856D01*
X57448152Y-86022856D02*
X57495771Y-86118094D01*
X58067200Y-85689523D02*
X58114819Y-85784761D01*
X58114819Y-85784761D02*
X58114819Y-86022856D01*
X58114819Y-86022856D02*
X58067200Y-86118094D01*
X58067200Y-86118094D02*
X57971961Y-86165713D01*
X57971961Y-86165713D02*
X57876723Y-86165713D01*
X57876723Y-86165713D02*
X57781485Y-86118094D01*
X57781485Y-86118094D02*
X57733866Y-86022856D01*
X57733866Y-86022856D02*
X57733866Y-85784761D01*
X57733866Y-85784761D02*
X57686247Y-85689523D01*
X58114819Y-84689523D02*
X58114819Y-85260951D01*
X58114819Y-84975237D02*
X57114819Y-84975237D01*
X57114819Y-84975237D02*
X57257676Y-85070475D01*
X57257676Y-85070475D02*
X57352914Y-85165713D01*
X57352914Y-85165713D02*
X57400533Y-85260951D01*
X81498819Y-65299904D02*
X82308342Y-65299904D01*
X82308342Y-65299904D02*
X82403580Y-65252285D01*
X82403580Y-65252285D02*
X82451200Y-65204666D01*
X82451200Y-65204666D02*
X82498819Y-65109428D01*
X82498819Y-65109428D02*
X82498819Y-64918952D01*
X82498819Y-64918952D02*
X82451200Y-64823714D01*
X82451200Y-64823714D02*
X82403580Y-64776095D01*
X82403580Y-64776095D02*
X82308342Y-64728476D01*
X82308342Y-64728476D02*
X81498819Y-64728476D01*
X81498819Y-64347523D02*
X81498819Y-63680857D01*
X81498819Y-63680857D02*
X82498819Y-64109428D01*
X81498819Y-54600094D02*
X82308342Y-54600094D01*
X82308342Y-54600094D02*
X82403580Y-54552475D01*
X82403580Y-54552475D02*
X82451200Y-54504856D01*
X82451200Y-54504856D02*
X82498819Y-54409618D01*
X82498819Y-54409618D02*
X82498819Y-54219142D01*
X82498819Y-54219142D02*
X82451200Y-54123904D01*
X82451200Y-54123904D02*
X82403580Y-54076285D01*
X82403580Y-54076285D02*
X82308342Y-54028666D01*
X82308342Y-54028666D02*
X81498819Y-54028666D01*
X82498819Y-53028666D02*
X82498819Y-53600094D01*
X82498819Y-53314380D02*
X81498819Y-53314380D01*
X81498819Y-53314380D02*
X81641676Y-53409618D01*
X81641676Y-53409618D02*
X81736914Y-53504856D01*
X81736914Y-53504856D02*
X81784533Y-53600094D01*
X81498819Y-52409618D02*
X81498819Y-52314380D01*
X81498819Y-52314380D02*
X81546438Y-52219142D01*
X81546438Y-52219142D02*
X81594057Y-52171523D01*
X81594057Y-52171523D02*
X81689295Y-52123904D01*
X81689295Y-52123904D02*
X81879771Y-52076285D01*
X81879771Y-52076285D02*
X82117866Y-52076285D01*
X82117866Y-52076285D02*
X82308342Y-52123904D01*
X82308342Y-52123904D02*
X82403580Y-52171523D01*
X82403580Y-52171523D02*
X82451200Y-52219142D01*
X82451200Y-52219142D02*
X82498819Y-52314380D01*
X82498819Y-52314380D02*
X82498819Y-52409618D01*
X82498819Y-52409618D02*
X82451200Y-52504856D01*
X82451200Y-52504856D02*
X82403580Y-52552475D01*
X82403580Y-52552475D02*
X82308342Y-52600094D01*
X82308342Y-52600094D02*
X82117866Y-52647713D01*
X82117866Y-52647713D02*
X81879771Y-52647713D01*
X81879771Y-52647713D02*
X81689295Y-52600094D01*
X81689295Y-52600094D02*
X81594057Y-52552475D01*
X81594057Y-52552475D02*
X81546438Y-52504856D01*
X81546438Y-52504856D02*
X81498819Y-52409618D01*
X91642819Y-76447094D02*
X90642819Y-76447094D01*
X90642819Y-76447094D02*
X90642819Y-76208999D01*
X90642819Y-76208999D02*
X90690438Y-76066142D01*
X90690438Y-76066142D02*
X90785676Y-75970904D01*
X90785676Y-75970904D02*
X90880914Y-75923285D01*
X90880914Y-75923285D02*
X91071390Y-75875666D01*
X91071390Y-75875666D02*
X91214247Y-75875666D01*
X91214247Y-75875666D02*
X91404723Y-75923285D01*
X91404723Y-75923285D02*
X91499961Y-75970904D01*
X91499961Y-75970904D02*
X91595200Y-76066142D01*
X91595200Y-76066142D02*
X91642819Y-76208999D01*
X91642819Y-76208999D02*
X91642819Y-76447094D01*
X90976152Y-75018523D02*
X91642819Y-75018523D01*
X90595200Y-75256618D02*
X91309485Y-75494713D01*
X91309485Y-75494713D02*
X91309485Y-74875666D01*
X75209905Y-98510819D02*
X75209905Y-97510819D01*
X75209905Y-97510819D02*
X75448000Y-97510819D01*
X75448000Y-97510819D02*
X75590857Y-97558438D01*
X75590857Y-97558438D02*
X75686095Y-97653676D01*
X75686095Y-97653676D02*
X75733714Y-97748914D01*
X75733714Y-97748914D02*
X75781333Y-97939390D01*
X75781333Y-97939390D02*
X75781333Y-98082247D01*
X75781333Y-98082247D02*
X75733714Y-98272723D01*
X75733714Y-98272723D02*
X75686095Y-98367961D01*
X75686095Y-98367961D02*
X75590857Y-98463200D01*
X75590857Y-98463200D02*
X75448000Y-98510819D01*
X75448000Y-98510819D02*
X75209905Y-98510819D01*
X76638476Y-97510819D02*
X76448000Y-97510819D01*
X76448000Y-97510819D02*
X76352762Y-97558438D01*
X76352762Y-97558438D02*
X76305143Y-97606057D01*
X76305143Y-97606057D02*
X76209905Y-97748914D01*
X76209905Y-97748914D02*
X76162286Y-97939390D01*
X76162286Y-97939390D02*
X76162286Y-98320342D01*
X76162286Y-98320342D02*
X76209905Y-98415580D01*
X76209905Y-98415580D02*
X76257524Y-98463200D01*
X76257524Y-98463200D02*
X76352762Y-98510819D01*
X76352762Y-98510819D02*
X76543238Y-98510819D01*
X76543238Y-98510819D02*
X76638476Y-98463200D01*
X76638476Y-98463200D02*
X76686095Y-98415580D01*
X76686095Y-98415580D02*
X76733714Y-98320342D01*
X76733714Y-98320342D02*
X76733714Y-98082247D01*
X76733714Y-98082247D02*
X76686095Y-97987009D01*
X76686095Y-97987009D02*
X76638476Y-97939390D01*
X76638476Y-97939390D02*
X76543238Y-97891771D01*
X76543238Y-97891771D02*
X76352762Y-97891771D01*
X76352762Y-97891771D02*
X76257524Y-97939390D01*
X76257524Y-97939390D02*
X76209905Y-97987009D01*
X76209905Y-97987009D02*
X76162286Y-98082247D01*
X118962819Y-53566285D02*
X118962819Y-54137713D01*
X118962819Y-53851999D02*
X117962819Y-53851999D01*
X117962819Y-53851999D02*
X118105676Y-53947237D01*
X118105676Y-53947237D02*
X118200914Y-54042475D01*
X118200914Y-54042475D02*
X118248533Y-54137713D01*
X118962819Y-53137713D02*
X117962819Y-53137713D01*
X118962819Y-52566285D02*
X118391390Y-52994856D01*
X117962819Y-52566285D02*
X118534247Y-53137713D01*
X94706819Y-88165713D02*
X94706819Y-87546666D01*
X94706819Y-87546666D02*
X95087771Y-87879999D01*
X95087771Y-87879999D02*
X95087771Y-87737142D01*
X95087771Y-87737142D02*
X95135390Y-87641904D01*
X95135390Y-87641904D02*
X95183009Y-87594285D01*
X95183009Y-87594285D02*
X95278247Y-87546666D01*
X95278247Y-87546666D02*
X95516342Y-87546666D01*
X95516342Y-87546666D02*
X95611580Y-87594285D01*
X95611580Y-87594285D02*
X95659200Y-87641904D01*
X95659200Y-87641904D02*
X95706819Y-87737142D01*
X95706819Y-87737142D02*
X95706819Y-88022856D01*
X95706819Y-88022856D02*
X95659200Y-88118094D01*
X95659200Y-88118094D02*
X95611580Y-88165713D01*
X94706819Y-87213332D02*
X94706819Y-86594285D01*
X94706819Y-86594285D02*
X95087771Y-86927618D01*
X95087771Y-86927618D02*
X95087771Y-86784761D01*
X95087771Y-86784761D02*
X95135390Y-86689523D01*
X95135390Y-86689523D02*
X95183009Y-86641904D01*
X95183009Y-86641904D02*
X95278247Y-86594285D01*
X95278247Y-86594285D02*
X95516342Y-86594285D01*
X95516342Y-86594285D02*
X95611580Y-86641904D01*
X95611580Y-86641904D02*
X95659200Y-86689523D01*
X95659200Y-86689523D02*
X95706819Y-86784761D01*
X95706819Y-86784761D02*
X95706819Y-87070475D01*
X95706819Y-87070475D02*
X95659200Y-87165713D01*
X95659200Y-87165713D02*
X95611580Y-87213332D01*
X94706819Y-85975237D02*
X94706819Y-85879999D01*
X94706819Y-85879999D02*
X94754438Y-85784761D01*
X94754438Y-85784761D02*
X94802057Y-85737142D01*
X94802057Y-85737142D02*
X94897295Y-85689523D01*
X94897295Y-85689523D02*
X95087771Y-85641904D01*
X95087771Y-85641904D02*
X95325866Y-85641904D01*
X95325866Y-85641904D02*
X95516342Y-85689523D01*
X95516342Y-85689523D02*
X95611580Y-85737142D01*
X95611580Y-85737142D02*
X95659200Y-85784761D01*
X95659200Y-85784761D02*
X95706819Y-85879999D01*
X95706819Y-85879999D02*
X95706819Y-85975237D01*
X95706819Y-85975237D02*
X95659200Y-86070475D01*
X95659200Y-86070475D02*
X95611580Y-86118094D01*
X95611580Y-86118094D02*
X95516342Y-86165713D01*
X95516342Y-86165713D02*
X95325866Y-86213332D01*
X95325866Y-86213332D02*
X95087771Y-86213332D01*
X95087771Y-86213332D02*
X94897295Y-86165713D01*
X94897295Y-86165713D02*
X94802057Y-86118094D01*
X94802057Y-86118094D02*
X94754438Y-86070475D01*
X94754438Y-86070475D02*
X94706819Y-85975237D01*
X94706819Y-54637713D02*
X94706819Y-54018666D01*
X94706819Y-54018666D02*
X95087771Y-54351999D01*
X95087771Y-54351999D02*
X95087771Y-54209142D01*
X95087771Y-54209142D02*
X95135390Y-54113904D01*
X95135390Y-54113904D02*
X95183009Y-54066285D01*
X95183009Y-54066285D02*
X95278247Y-54018666D01*
X95278247Y-54018666D02*
X95516342Y-54018666D01*
X95516342Y-54018666D02*
X95611580Y-54066285D01*
X95611580Y-54066285D02*
X95659200Y-54113904D01*
X95659200Y-54113904D02*
X95706819Y-54209142D01*
X95706819Y-54209142D02*
X95706819Y-54494856D01*
X95706819Y-54494856D02*
X95659200Y-54590094D01*
X95659200Y-54590094D02*
X95611580Y-54637713D01*
X94706819Y-53685332D02*
X94706819Y-53066285D01*
X94706819Y-53066285D02*
X95087771Y-53399618D01*
X95087771Y-53399618D02*
X95087771Y-53256761D01*
X95087771Y-53256761D02*
X95135390Y-53161523D01*
X95135390Y-53161523D02*
X95183009Y-53113904D01*
X95183009Y-53113904D02*
X95278247Y-53066285D01*
X95278247Y-53066285D02*
X95516342Y-53066285D01*
X95516342Y-53066285D02*
X95611580Y-53113904D01*
X95611580Y-53113904D02*
X95659200Y-53161523D01*
X95659200Y-53161523D02*
X95706819Y-53256761D01*
X95706819Y-53256761D02*
X95706819Y-53542475D01*
X95706819Y-53542475D02*
X95659200Y-53637713D01*
X95659200Y-53637713D02*
X95611580Y-53685332D01*
X94706819Y-52447237D02*
X94706819Y-52351999D01*
X94706819Y-52351999D02*
X94754438Y-52256761D01*
X94754438Y-52256761D02*
X94802057Y-52209142D01*
X94802057Y-52209142D02*
X94897295Y-52161523D01*
X94897295Y-52161523D02*
X95087771Y-52113904D01*
X95087771Y-52113904D02*
X95325866Y-52113904D01*
X95325866Y-52113904D02*
X95516342Y-52161523D01*
X95516342Y-52161523D02*
X95611580Y-52209142D01*
X95611580Y-52209142D02*
X95659200Y-52256761D01*
X95659200Y-52256761D02*
X95706819Y-52351999D01*
X95706819Y-52351999D02*
X95706819Y-52447237D01*
X95706819Y-52447237D02*
X95659200Y-52542475D01*
X95659200Y-52542475D02*
X95611580Y-52590094D01*
X95611580Y-52590094D02*
X95516342Y-52637713D01*
X95516342Y-52637713D02*
X95325866Y-52685332D01*
X95325866Y-52685332D02*
X95087771Y-52685332D01*
X95087771Y-52685332D02*
X94897295Y-52637713D01*
X94897295Y-52637713D02*
X94802057Y-52590094D01*
X94802057Y-52590094D02*
X94754438Y-52542475D01*
X94754438Y-52542475D02*
X94706819Y-52447237D01*
X81498819Y-76475904D02*
X82308342Y-76475904D01*
X82308342Y-76475904D02*
X82403580Y-76428285D01*
X82403580Y-76428285D02*
X82451200Y-76380666D01*
X82451200Y-76380666D02*
X82498819Y-76285428D01*
X82498819Y-76285428D02*
X82498819Y-76094952D01*
X82498819Y-76094952D02*
X82451200Y-75999714D01*
X82451200Y-75999714D02*
X82403580Y-75952095D01*
X82403580Y-75952095D02*
X82308342Y-75904476D01*
X82308342Y-75904476D02*
X81498819Y-75904476D01*
X81498819Y-75523523D02*
X81498819Y-74904476D01*
X81498819Y-74904476D02*
X81879771Y-75237809D01*
X81879771Y-75237809D02*
X81879771Y-75094952D01*
X81879771Y-75094952D02*
X81927390Y-74999714D01*
X81927390Y-74999714D02*
X81975009Y-74952095D01*
X81975009Y-74952095D02*
X82070247Y-74904476D01*
X82070247Y-74904476D02*
X82308342Y-74904476D01*
X82308342Y-74904476D02*
X82403580Y-74952095D01*
X82403580Y-74952095D02*
X82451200Y-74999714D01*
X82451200Y-74999714D02*
X82498819Y-75094952D01*
X82498819Y-75094952D02*
X82498819Y-75380666D01*
X82498819Y-75380666D02*
X82451200Y-75475904D01*
X82451200Y-75475904D02*
X82403580Y-75523523D01*
X97754819Y-65813713D02*
X97754819Y-65194666D01*
X97754819Y-65194666D02*
X98135771Y-65527999D01*
X98135771Y-65527999D02*
X98135771Y-65385142D01*
X98135771Y-65385142D02*
X98183390Y-65289904D01*
X98183390Y-65289904D02*
X98231009Y-65242285D01*
X98231009Y-65242285D02*
X98326247Y-65194666D01*
X98326247Y-65194666D02*
X98564342Y-65194666D01*
X98564342Y-65194666D02*
X98659580Y-65242285D01*
X98659580Y-65242285D02*
X98707200Y-65289904D01*
X98707200Y-65289904D02*
X98754819Y-65385142D01*
X98754819Y-65385142D02*
X98754819Y-65670856D01*
X98754819Y-65670856D02*
X98707200Y-65766094D01*
X98707200Y-65766094D02*
X98659580Y-65813713D01*
X97754819Y-64861332D02*
X97754819Y-64242285D01*
X97754819Y-64242285D02*
X98135771Y-64575618D01*
X98135771Y-64575618D02*
X98135771Y-64432761D01*
X98135771Y-64432761D02*
X98183390Y-64337523D01*
X98183390Y-64337523D02*
X98231009Y-64289904D01*
X98231009Y-64289904D02*
X98326247Y-64242285D01*
X98326247Y-64242285D02*
X98564342Y-64242285D01*
X98564342Y-64242285D02*
X98659580Y-64289904D01*
X98659580Y-64289904D02*
X98707200Y-64337523D01*
X98707200Y-64337523D02*
X98754819Y-64432761D01*
X98754819Y-64432761D02*
X98754819Y-64718475D01*
X98754819Y-64718475D02*
X98707200Y-64813713D01*
X98707200Y-64813713D02*
X98659580Y-64861332D01*
X97754819Y-63623237D02*
X97754819Y-63527999D01*
X97754819Y-63527999D02*
X97802438Y-63432761D01*
X97802438Y-63432761D02*
X97850057Y-63385142D01*
X97850057Y-63385142D02*
X97945295Y-63337523D01*
X97945295Y-63337523D02*
X98135771Y-63289904D01*
X98135771Y-63289904D02*
X98373866Y-63289904D01*
X98373866Y-63289904D02*
X98564342Y-63337523D01*
X98564342Y-63337523D02*
X98659580Y-63385142D01*
X98659580Y-63385142D02*
X98707200Y-63432761D01*
X98707200Y-63432761D02*
X98754819Y-63527999D01*
X98754819Y-63527999D02*
X98754819Y-63623237D01*
X98754819Y-63623237D02*
X98707200Y-63718475D01*
X98707200Y-63718475D02*
X98659580Y-63766094D01*
X98659580Y-63766094D02*
X98564342Y-63813713D01*
X98564342Y-63813713D02*
X98373866Y-63861332D01*
X98373866Y-63861332D02*
X98135771Y-63861332D01*
X98135771Y-63861332D02*
X97945295Y-63813713D01*
X97945295Y-63813713D02*
X97850057Y-63766094D01*
X97850057Y-63766094D02*
X97802438Y-63718475D01*
X97802438Y-63718475D02*
X97754819Y-63623237D01*
X118962819Y-64742285D02*
X118962819Y-65313713D01*
X118962819Y-65027999D02*
X117962819Y-65027999D01*
X117962819Y-65027999D02*
X118105676Y-65123237D01*
X118105676Y-65123237D02*
X118200914Y-65218475D01*
X118200914Y-65218475D02*
X118248533Y-65313713D01*
X118962819Y-64313713D02*
X117962819Y-64313713D01*
X118962819Y-63742285D02*
X118391390Y-64170856D01*
X117962819Y-63742285D02*
X118534247Y-64313713D01*
X94706819Y-65813713D02*
X94706819Y-65194666D01*
X94706819Y-65194666D02*
X95087771Y-65527999D01*
X95087771Y-65527999D02*
X95087771Y-65385142D01*
X95087771Y-65385142D02*
X95135390Y-65289904D01*
X95135390Y-65289904D02*
X95183009Y-65242285D01*
X95183009Y-65242285D02*
X95278247Y-65194666D01*
X95278247Y-65194666D02*
X95516342Y-65194666D01*
X95516342Y-65194666D02*
X95611580Y-65242285D01*
X95611580Y-65242285D02*
X95659200Y-65289904D01*
X95659200Y-65289904D02*
X95706819Y-65385142D01*
X95706819Y-65385142D02*
X95706819Y-65670856D01*
X95706819Y-65670856D02*
X95659200Y-65766094D01*
X95659200Y-65766094D02*
X95611580Y-65813713D01*
X94706819Y-64861332D02*
X94706819Y-64242285D01*
X94706819Y-64242285D02*
X95087771Y-64575618D01*
X95087771Y-64575618D02*
X95087771Y-64432761D01*
X95087771Y-64432761D02*
X95135390Y-64337523D01*
X95135390Y-64337523D02*
X95183009Y-64289904D01*
X95183009Y-64289904D02*
X95278247Y-64242285D01*
X95278247Y-64242285D02*
X95516342Y-64242285D01*
X95516342Y-64242285D02*
X95611580Y-64289904D01*
X95611580Y-64289904D02*
X95659200Y-64337523D01*
X95659200Y-64337523D02*
X95706819Y-64432761D01*
X95706819Y-64432761D02*
X95706819Y-64718475D01*
X95706819Y-64718475D02*
X95659200Y-64813713D01*
X95659200Y-64813713D02*
X95611580Y-64861332D01*
X94706819Y-63623237D02*
X94706819Y-63527999D01*
X94706819Y-63527999D02*
X94754438Y-63432761D01*
X94754438Y-63432761D02*
X94802057Y-63385142D01*
X94802057Y-63385142D02*
X94897295Y-63337523D01*
X94897295Y-63337523D02*
X95087771Y-63289904D01*
X95087771Y-63289904D02*
X95325866Y-63289904D01*
X95325866Y-63289904D02*
X95516342Y-63337523D01*
X95516342Y-63337523D02*
X95611580Y-63385142D01*
X95611580Y-63385142D02*
X95659200Y-63432761D01*
X95659200Y-63432761D02*
X95706819Y-63527999D01*
X95706819Y-63527999D02*
X95706819Y-63623237D01*
X95706819Y-63623237D02*
X95659200Y-63718475D01*
X95659200Y-63718475D02*
X95611580Y-63766094D01*
X95611580Y-63766094D02*
X95516342Y-63813713D01*
X95516342Y-63813713D02*
X95325866Y-63861332D01*
X95325866Y-63861332D02*
X95087771Y-63861332D01*
X95087771Y-63861332D02*
X94897295Y-63813713D01*
X94897295Y-63813713D02*
X94802057Y-63766094D01*
X94802057Y-63766094D02*
X94754438Y-63718475D01*
X94754438Y-63718475D02*
X94706819Y-63623237D01*
X57591009Y-55494857D02*
X57591009Y-55161524D01*
X58114819Y-55018667D02*
X58114819Y-55494857D01*
X58114819Y-55494857D02*
X57114819Y-55494857D01*
X57114819Y-55494857D02*
X57114819Y-55018667D01*
X58114819Y-54685333D02*
X57448152Y-54161524D01*
X57448152Y-54685333D02*
X58114819Y-54161524D01*
X57448152Y-53923428D02*
X57448152Y-53542476D01*
X57114819Y-53780571D02*
X57971961Y-53780571D01*
X57971961Y-53780571D02*
X58067200Y-53732952D01*
X58067200Y-53732952D02*
X58114819Y-53637714D01*
X58114819Y-53637714D02*
X58114819Y-53542476D01*
X58114819Y-53209142D02*
X57448152Y-53209142D01*
X57638628Y-53209142D02*
X57543390Y-53161523D01*
X57543390Y-53161523D02*
X57495771Y-53113904D01*
X57495771Y-53113904D02*
X57448152Y-53018666D01*
X57448152Y-53018666D02*
X57448152Y-52923428D01*
X58114819Y-52161523D02*
X57591009Y-52161523D01*
X57591009Y-52161523D02*
X57495771Y-52209142D01*
X57495771Y-52209142D02*
X57448152Y-52304380D01*
X57448152Y-52304380D02*
X57448152Y-52494856D01*
X57448152Y-52494856D02*
X57495771Y-52590094D01*
X58067200Y-52161523D02*
X58114819Y-52256761D01*
X58114819Y-52256761D02*
X58114819Y-52494856D01*
X58114819Y-52494856D02*
X58067200Y-52590094D01*
X58067200Y-52590094D02*
X57971961Y-52637713D01*
X57971961Y-52637713D02*
X57876723Y-52637713D01*
X57876723Y-52637713D02*
X57781485Y-52590094D01*
X57781485Y-52590094D02*
X57733866Y-52494856D01*
X57733866Y-52494856D02*
X57733866Y-52256761D01*
X57733866Y-52256761D02*
X57686247Y-52161523D01*
X57448152Y-51256761D02*
X58114819Y-51256761D01*
X57067200Y-51494856D02*
X57781485Y-51732951D01*
X57781485Y-51732951D02*
X57781485Y-51113904D01*
X118962819Y-75918285D02*
X118962819Y-76489713D01*
X118962819Y-76203999D02*
X117962819Y-76203999D01*
X117962819Y-76203999D02*
X118105676Y-76299237D01*
X118105676Y-76299237D02*
X118200914Y-76394475D01*
X118200914Y-76394475D02*
X118248533Y-76489713D01*
X118962819Y-75489713D02*
X117962819Y-75489713D01*
X118962819Y-74918285D02*
X118391390Y-75346856D01*
X117962819Y-74918285D02*
X118534247Y-75489713D01*
X57591009Y-77846857D02*
X57591009Y-77513524D01*
X58114819Y-77370667D02*
X58114819Y-77846857D01*
X58114819Y-77846857D02*
X57114819Y-77846857D01*
X57114819Y-77846857D02*
X57114819Y-77370667D01*
X58114819Y-77037333D02*
X57448152Y-76513524D01*
X57448152Y-77037333D02*
X58114819Y-76513524D01*
X57448152Y-76275428D02*
X57448152Y-75894476D01*
X57114819Y-76132571D02*
X57971961Y-76132571D01*
X57971961Y-76132571D02*
X58067200Y-76084952D01*
X58067200Y-76084952D02*
X58114819Y-75989714D01*
X58114819Y-75989714D02*
X58114819Y-75894476D01*
X58114819Y-75561142D02*
X57448152Y-75561142D01*
X57638628Y-75561142D02*
X57543390Y-75513523D01*
X57543390Y-75513523D02*
X57495771Y-75465904D01*
X57495771Y-75465904D02*
X57448152Y-75370666D01*
X57448152Y-75370666D02*
X57448152Y-75275428D01*
X58114819Y-74513523D02*
X57591009Y-74513523D01*
X57591009Y-74513523D02*
X57495771Y-74561142D01*
X57495771Y-74561142D02*
X57448152Y-74656380D01*
X57448152Y-74656380D02*
X57448152Y-74846856D01*
X57448152Y-74846856D02*
X57495771Y-74942094D01*
X58067200Y-74513523D02*
X58114819Y-74608761D01*
X58114819Y-74608761D02*
X58114819Y-74846856D01*
X58114819Y-74846856D02*
X58067200Y-74942094D01*
X58067200Y-74942094D02*
X57971961Y-74989713D01*
X57971961Y-74989713D02*
X57876723Y-74989713D01*
X57876723Y-74989713D02*
X57781485Y-74942094D01*
X57781485Y-74942094D02*
X57733866Y-74846856D01*
X57733866Y-74846856D02*
X57733866Y-74608761D01*
X57733866Y-74608761D02*
X57686247Y-74513523D01*
X57210057Y-74084951D02*
X57162438Y-74037332D01*
X57162438Y-74037332D02*
X57114819Y-73942094D01*
X57114819Y-73942094D02*
X57114819Y-73703999D01*
X57114819Y-73703999D02*
X57162438Y-73608761D01*
X57162438Y-73608761D02*
X57210057Y-73561142D01*
X57210057Y-73561142D02*
X57305295Y-73513523D01*
X57305295Y-73513523D02*
X57400533Y-73513523D01*
X57400533Y-73513523D02*
X57543390Y-73561142D01*
X57543390Y-73561142D02*
X58114819Y-74132570D01*
X58114819Y-74132570D02*
X58114819Y-73513523D01*
X74482819Y-53566285D02*
X74482819Y-54137713D01*
X74482819Y-53851999D02*
X73482819Y-53851999D01*
X73482819Y-53851999D02*
X73625676Y-53947237D01*
X73625676Y-53947237D02*
X73720914Y-54042475D01*
X73720914Y-54042475D02*
X73768533Y-54137713D01*
X74482819Y-53137713D02*
X73482819Y-53137713D01*
X74482819Y-52566285D02*
X73911390Y-52994856D01*
X73482819Y-52566285D02*
X74054247Y-53137713D01*
X57591009Y-66670857D02*
X57591009Y-66337524D01*
X58114819Y-66194667D02*
X58114819Y-66670857D01*
X58114819Y-66670857D02*
X57114819Y-66670857D01*
X57114819Y-66670857D02*
X57114819Y-66194667D01*
X58114819Y-65861333D02*
X57448152Y-65337524D01*
X57448152Y-65861333D02*
X58114819Y-65337524D01*
X57448152Y-65099428D02*
X57448152Y-64718476D01*
X57114819Y-64956571D02*
X57971961Y-64956571D01*
X57971961Y-64956571D02*
X58067200Y-64908952D01*
X58067200Y-64908952D02*
X58114819Y-64813714D01*
X58114819Y-64813714D02*
X58114819Y-64718476D01*
X58114819Y-64385142D02*
X57448152Y-64385142D01*
X57638628Y-64385142D02*
X57543390Y-64337523D01*
X57543390Y-64337523D02*
X57495771Y-64289904D01*
X57495771Y-64289904D02*
X57448152Y-64194666D01*
X57448152Y-64194666D02*
X57448152Y-64099428D01*
X58114819Y-63337523D02*
X57591009Y-63337523D01*
X57591009Y-63337523D02*
X57495771Y-63385142D01*
X57495771Y-63385142D02*
X57448152Y-63480380D01*
X57448152Y-63480380D02*
X57448152Y-63670856D01*
X57448152Y-63670856D02*
X57495771Y-63766094D01*
X58067200Y-63337523D02*
X58114819Y-63432761D01*
X58114819Y-63432761D02*
X58114819Y-63670856D01*
X58114819Y-63670856D02*
X58067200Y-63766094D01*
X58067200Y-63766094D02*
X57971961Y-63813713D01*
X57971961Y-63813713D02*
X57876723Y-63813713D01*
X57876723Y-63813713D02*
X57781485Y-63766094D01*
X57781485Y-63766094D02*
X57733866Y-63670856D01*
X57733866Y-63670856D02*
X57733866Y-63432761D01*
X57733866Y-63432761D02*
X57686247Y-63337523D01*
X57114819Y-62956570D02*
X57114819Y-62337523D01*
X57114819Y-62337523D02*
X57495771Y-62670856D01*
X57495771Y-62670856D02*
X57495771Y-62527999D01*
X57495771Y-62527999D02*
X57543390Y-62432761D01*
X57543390Y-62432761D02*
X57591009Y-62385142D01*
X57591009Y-62385142D02*
X57686247Y-62337523D01*
X57686247Y-62337523D02*
X57924342Y-62337523D01*
X57924342Y-62337523D02*
X58019580Y-62385142D01*
X58019580Y-62385142D02*
X58067200Y-62432761D01*
X58067200Y-62432761D02*
X58114819Y-62527999D01*
X58114819Y-62527999D02*
X58114819Y-62813713D01*
X58114819Y-62813713D02*
X58067200Y-62908951D01*
X58067200Y-62908951D02*
X58019580Y-62956570D01*
X85893714Y-91906819D02*
X85322286Y-91906819D01*
X85608000Y-91906819D02*
X85608000Y-90906819D01*
X85608000Y-90906819D02*
X85512762Y-91049676D01*
X85512762Y-91049676D02*
X85417524Y-91144914D01*
X85417524Y-91144914D02*
X85322286Y-91192533D01*
X86322286Y-91906819D02*
X86322286Y-90906819D01*
X86893714Y-91906819D02*
X86465143Y-91335390D01*
X86893714Y-90906819D02*
X86322286Y-91478247D01*
X91813046Y-47253009D02*
X91479713Y-47253009D01*
X91479713Y-47776819D02*
X91479713Y-46776819D01*
X91479713Y-46776819D02*
X91955903Y-46776819D01*
X92336856Y-47776819D02*
X92336856Y-47110152D01*
X92336856Y-47300628D02*
X92384475Y-47205390D01*
X92384475Y-47205390D02*
X92432094Y-47157771D01*
X92432094Y-47157771D02*
X92527332Y-47110152D01*
X92527332Y-47110152D02*
X92622570Y-47110152D01*
X93098761Y-47776819D02*
X93003523Y-47729200D01*
X93003523Y-47729200D02*
X92955904Y-47681580D01*
X92955904Y-47681580D02*
X92908285Y-47586342D01*
X92908285Y-47586342D02*
X92908285Y-47300628D01*
X92908285Y-47300628D02*
X92955904Y-47205390D01*
X92955904Y-47205390D02*
X93003523Y-47157771D01*
X93003523Y-47157771D02*
X93098761Y-47110152D01*
X93098761Y-47110152D02*
X93241618Y-47110152D01*
X93241618Y-47110152D02*
X93336856Y-47157771D01*
X93336856Y-47157771D02*
X93384475Y-47205390D01*
X93384475Y-47205390D02*
X93432094Y-47300628D01*
X93432094Y-47300628D02*
X93432094Y-47586342D01*
X93432094Y-47586342D02*
X93384475Y-47681580D01*
X93384475Y-47681580D02*
X93336856Y-47729200D01*
X93336856Y-47729200D02*
X93241618Y-47776819D01*
X93241618Y-47776819D02*
X93098761Y-47776819D01*
X93860666Y-47776819D02*
X93860666Y-47110152D01*
X93860666Y-47205390D02*
X93908285Y-47157771D01*
X93908285Y-47157771D02*
X94003523Y-47110152D01*
X94003523Y-47110152D02*
X94146380Y-47110152D01*
X94146380Y-47110152D02*
X94241618Y-47157771D01*
X94241618Y-47157771D02*
X94289237Y-47253009D01*
X94289237Y-47253009D02*
X94289237Y-47776819D01*
X94289237Y-47253009D02*
X94336856Y-47157771D01*
X94336856Y-47157771D02*
X94432094Y-47110152D01*
X94432094Y-47110152D02*
X94574951Y-47110152D01*
X94574951Y-47110152D02*
X94670190Y-47157771D01*
X94670190Y-47157771D02*
X94717809Y-47253009D01*
X94717809Y-47253009D02*
X94717809Y-47776819D01*
X94955904Y-47872057D02*
X95717808Y-47872057D01*
X96527332Y-47681580D02*
X96479713Y-47729200D01*
X96479713Y-47729200D02*
X96336856Y-47776819D01*
X96336856Y-47776819D02*
X96241618Y-47776819D01*
X96241618Y-47776819D02*
X96098761Y-47729200D01*
X96098761Y-47729200D02*
X96003523Y-47633961D01*
X96003523Y-47633961D02*
X95955904Y-47538723D01*
X95955904Y-47538723D02*
X95908285Y-47348247D01*
X95908285Y-47348247D02*
X95908285Y-47205390D01*
X95908285Y-47205390D02*
X95955904Y-47014914D01*
X95955904Y-47014914D02*
X96003523Y-46919676D01*
X96003523Y-46919676D02*
X96098761Y-46824438D01*
X96098761Y-46824438D02*
X96241618Y-46776819D01*
X96241618Y-46776819D02*
X96336856Y-46776819D01*
X96336856Y-46776819D02*
X96479713Y-46824438D01*
X96479713Y-46824438D02*
X96527332Y-46872057D01*
X97098761Y-47776819D02*
X97003523Y-47729200D01*
X97003523Y-47729200D02*
X96955904Y-47681580D01*
X96955904Y-47681580D02*
X96908285Y-47586342D01*
X96908285Y-47586342D02*
X96908285Y-47300628D01*
X96908285Y-47300628D02*
X96955904Y-47205390D01*
X96955904Y-47205390D02*
X97003523Y-47157771D01*
X97003523Y-47157771D02*
X97098761Y-47110152D01*
X97098761Y-47110152D02*
X97241618Y-47110152D01*
X97241618Y-47110152D02*
X97336856Y-47157771D01*
X97336856Y-47157771D02*
X97384475Y-47205390D01*
X97384475Y-47205390D02*
X97432094Y-47300628D01*
X97432094Y-47300628D02*
X97432094Y-47586342D01*
X97432094Y-47586342D02*
X97384475Y-47681580D01*
X97384475Y-47681580D02*
X97336856Y-47729200D01*
X97336856Y-47729200D02*
X97241618Y-47776819D01*
X97241618Y-47776819D02*
X97098761Y-47776819D01*
X97860666Y-47110152D02*
X97860666Y-47776819D01*
X97860666Y-47205390D02*
X97908285Y-47157771D01*
X97908285Y-47157771D02*
X98003523Y-47110152D01*
X98003523Y-47110152D02*
X98146380Y-47110152D01*
X98146380Y-47110152D02*
X98241618Y-47157771D01*
X98241618Y-47157771D02*
X98289237Y-47253009D01*
X98289237Y-47253009D02*
X98289237Y-47776819D01*
X98622571Y-47110152D02*
X99003523Y-47110152D01*
X98765428Y-46776819D02*
X98765428Y-47633961D01*
X98765428Y-47633961D02*
X98813047Y-47729200D01*
X98813047Y-47729200D02*
X98908285Y-47776819D01*
X98908285Y-47776819D02*
X99003523Y-47776819D01*
X99336857Y-47776819D02*
X99336857Y-47110152D01*
X99336857Y-47300628D02*
X99384476Y-47205390D01*
X99384476Y-47205390D02*
X99432095Y-47157771D01*
X99432095Y-47157771D02*
X99527333Y-47110152D01*
X99527333Y-47110152D02*
X99622571Y-47110152D01*
X100098762Y-47776819D02*
X100003524Y-47729200D01*
X100003524Y-47729200D02*
X99955905Y-47681580D01*
X99955905Y-47681580D02*
X99908286Y-47586342D01*
X99908286Y-47586342D02*
X99908286Y-47300628D01*
X99908286Y-47300628D02*
X99955905Y-47205390D01*
X99955905Y-47205390D02*
X100003524Y-47157771D01*
X100003524Y-47157771D02*
X100098762Y-47110152D01*
X100098762Y-47110152D02*
X100241619Y-47110152D01*
X100241619Y-47110152D02*
X100336857Y-47157771D01*
X100336857Y-47157771D02*
X100384476Y-47205390D01*
X100384476Y-47205390D02*
X100432095Y-47300628D01*
X100432095Y-47300628D02*
X100432095Y-47586342D01*
X100432095Y-47586342D02*
X100384476Y-47681580D01*
X100384476Y-47681580D02*
X100336857Y-47729200D01*
X100336857Y-47729200D02*
X100241619Y-47776819D01*
X100241619Y-47776819D02*
X100098762Y-47776819D01*
X101003524Y-47776819D02*
X100908286Y-47729200D01*
X100908286Y-47729200D02*
X100860667Y-47633961D01*
X100860667Y-47633961D02*
X100860667Y-46776819D01*
X91642819Y-54571285D02*
X90642819Y-54571285D01*
X90642819Y-54571285D02*
X90642819Y-54333190D01*
X90642819Y-54333190D02*
X90690438Y-54190333D01*
X90690438Y-54190333D02*
X90785676Y-54095095D01*
X90785676Y-54095095D02*
X90880914Y-54047476D01*
X90880914Y-54047476D02*
X91071390Y-53999857D01*
X91071390Y-53999857D02*
X91214247Y-53999857D01*
X91214247Y-53999857D02*
X91404723Y-54047476D01*
X91404723Y-54047476D02*
X91499961Y-54095095D01*
X91499961Y-54095095D02*
X91595200Y-54190333D01*
X91595200Y-54190333D02*
X91642819Y-54333190D01*
X91642819Y-54333190D02*
X91642819Y-54571285D01*
X91642819Y-53047476D02*
X91642819Y-53618904D01*
X91642819Y-53333190D02*
X90642819Y-53333190D01*
X90642819Y-53333190D02*
X90785676Y-53428428D01*
X90785676Y-53428428D02*
X90880914Y-53523666D01*
X90880914Y-53523666D02*
X90928533Y-53618904D01*
X90642819Y-52428428D02*
X90642819Y-52333190D01*
X90642819Y-52333190D02*
X90690438Y-52237952D01*
X90690438Y-52237952D02*
X90738057Y-52190333D01*
X90738057Y-52190333D02*
X90833295Y-52142714D01*
X90833295Y-52142714D02*
X91023771Y-52095095D01*
X91023771Y-52095095D02*
X91261866Y-52095095D01*
X91261866Y-52095095D02*
X91452342Y-52142714D01*
X91452342Y-52142714D02*
X91547580Y-52190333D01*
X91547580Y-52190333D02*
X91595200Y-52237952D01*
X91595200Y-52237952D02*
X91642819Y-52333190D01*
X91642819Y-52333190D02*
X91642819Y-52428428D01*
X91642819Y-52428428D02*
X91595200Y-52523666D01*
X91595200Y-52523666D02*
X91547580Y-52571285D01*
X91547580Y-52571285D02*
X91452342Y-52618904D01*
X91452342Y-52618904D02*
X91261866Y-52666523D01*
X91261866Y-52666523D02*
X91023771Y-52666523D01*
X91023771Y-52666523D02*
X90833295Y-52618904D01*
X90833295Y-52618904D02*
X90738057Y-52571285D01*
X90738057Y-52571285D02*
X90690438Y-52523666D01*
X90690438Y-52523666D02*
X90642819Y-52428428D01*
X74482819Y-87094285D02*
X74482819Y-87665713D01*
X74482819Y-87379999D02*
X73482819Y-87379999D01*
X73482819Y-87379999D02*
X73625676Y-87475237D01*
X73625676Y-87475237D02*
X73720914Y-87570475D01*
X73720914Y-87570475D02*
X73768533Y-87665713D01*
X74482819Y-86665713D02*
X73482819Y-86665713D01*
X74482819Y-86094285D02*
X73911390Y-86522856D01*
X73482819Y-86094285D02*
X74054247Y-86665713D01*
X81498819Y-87651904D02*
X82308342Y-87651904D01*
X82308342Y-87651904D02*
X82403580Y-87604285D01*
X82403580Y-87604285D02*
X82451200Y-87556666D01*
X82451200Y-87556666D02*
X82498819Y-87461428D01*
X82498819Y-87461428D02*
X82498819Y-87270952D01*
X82498819Y-87270952D02*
X82451200Y-87175714D01*
X82451200Y-87175714D02*
X82403580Y-87128095D01*
X82403580Y-87128095D02*
X82308342Y-87080476D01*
X82308342Y-87080476D02*
X81498819Y-87080476D01*
X82498819Y-86556666D02*
X82498819Y-86366190D01*
X82498819Y-86366190D02*
X82451200Y-86270952D01*
X82451200Y-86270952D02*
X82403580Y-86223333D01*
X82403580Y-86223333D02*
X82260723Y-86128095D01*
X82260723Y-86128095D02*
X82070247Y-86080476D01*
X82070247Y-86080476D02*
X81689295Y-86080476D01*
X81689295Y-86080476D02*
X81594057Y-86128095D01*
X81594057Y-86128095D02*
X81546438Y-86175714D01*
X81546438Y-86175714D02*
X81498819Y-86270952D01*
X81498819Y-86270952D02*
X81498819Y-86461428D01*
X81498819Y-86461428D02*
X81546438Y-86556666D01*
X81546438Y-86556666D02*
X81594057Y-86604285D01*
X81594057Y-86604285D02*
X81689295Y-86651904D01*
X81689295Y-86651904D02*
X81927390Y-86651904D01*
X81927390Y-86651904D02*
X82022628Y-86604285D01*
X82022628Y-86604285D02*
X82070247Y-86556666D01*
X82070247Y-86556666D02*
X82117866Y-86461428D01*
X82117866Y-86461428D02*
X82117866Y-86270952D01*
X82117866Y-86270952D02*
X82070247Y-86175714D01*
X82070247Y-86175714D02*
X82022628Y-86128095D01*
X82022628Y-86128095D02*
X81927390Y-86080476D01*
X102818819Y-54085094D02*
X101818819Y-54085094D01*
X101818819Y-54085094D02*
X101818819Y-53846999D01*
X101818819Y-53846999D02*
X101866438Y-53704142D01*
X101866438Y-53704142D02*
X101961676Y-53608904D01*
X101961676Y-53608904D02*
X102056914Y-53561285D01*
X102056914Y-53561285D02*
X102247390Y-53513666D01*
X102247390Y-53513666D02*
X102390247Y-53513666D01*
X102390247Y-53513666D02*
X102580723Y-53561285D01*
X102580723Y-53561285D02*
X102675961Y-53608904D01*
X102675961Y-53608904D02*
X102771200Y-53704142D01*
X102771200Y-53704142D02*
X102818819Y-53846999D01*
X102818819Y-53846999D02*
X102818819Y-54085094D01*
X101818819Y-53180332D02*
X101818819Y-52561285D01*
X101818819Y-52561285D02*
X102199771Y-52894618D01*
X102199771Y-52894618D02*
X102199771Y-52751761D01*
X102199771Y-52751761D02*
X102247390Y-52656523D01*
X102247390Y-52656523D02*
X102295009Y-52608904D01*
X102295009Y-52608904D02*
X102390247Y-52561285D01*
X102390247Y-52561285D02*
X102628342Y-52561285D01*
X102628342Y-52561285D02*
X102723580Y-52608904D01*
X102723580Y-52608904D02*
X102771200Y-52656523D01*
X102771200Y-52656523D02*
X102818819Y-52751761D01*
X102818819Y-52751761D02*
X102818819Y-53037475D01*
X102818819Y-53037475D02*
X102771200Y-53132713D01*
X102771200Y-53132713D02*
X102723580Y-53180332D01*
X110962819Y-76455904D02*
X111772342Y-76455904D01*
X111772342Y-76455904D02*
X111867580Y-76408285D01*
X111867580Y-76408285D02*
X111915200Y-76360666D01*
X111915200Y-76360666D02*
X111962819Y-76265428D01*
X111962819Y-76265428D02*
X111962819Y-76074952D01*
X111962819Y-76074952D02*
X111915200Y-75979714D01*
X111915200Y-75979714D02*
X111867580Y-75932095D01*
X111867580Y-75932095D02*
X111772342Y-75884476D01*
X111772342Y-75884476D02*
X110962819Y-75884476D01*
X110962819Y-74932095D02*
X110962819Y-75408285D01*
X110962819Y-75408285D02*
X111439009Y-75455904D01*
X111439009Y-75455904D02*
X111391390Y-75408285D01*
X111391390Y-75408285D02*
X111343771Y-75313047D01*
X111343771Y-75313047D02*
X111343771Y-75074952D01*
X111343771Y-75074952D02*
X111391390Y-74979714D01*
X111391390Y-74979714D02*
X111439009Y-74932095D01*
X111439009Y-74932095D02*
X111534247Y-74884476D01*
X111534247Y-74884476D02*
X111772342Y-74884476D01*
X111772342Y-74884476D02*
X111867580Y-74932095D01*
X111867580Y-74932095D02*
X111915200Y-74979714D01*
X111915200Y-74979714D02*
X111962819Y-75074952D01*
X111962819Y-75074952D02*
X111962819Y-75313047D01*
X111962819Y-75313047D02*
X111915200Y-75408285D01*
X111915200Y-75408285D02*
X111867580Y-75455904D01*
D11*
%TO.C,Mag4*%
X125986000Y-48272000D02*
X125986000Y-58432000D01*
X125986000Y-58432000D02*
X133606000Y-58432000D01*
X127256000Y-58432000D02*
X127256000Y-48272000D01*
X133606000Y-48272000D02*
X125986000Y-48272000D01*
X133606000Y-58432000D02*
X133606000Y-48272000D01*
%TO.C,U6*%
X94116000Y-91905000D02*
X94116000Y-97105000D01*
X94116000Y-97105000D02*
X95766000Y-97105000D01*
X97766000Y-97105000D02*
X99416000Y-97105000D01*
X99416000Y-91905000D02*
X94116000Y-91905000D01*
X99416000Y-97105000D02*
X99416000Y-91905000D01*
X95766000Y-97105000D02*
G75*
G02*
X97766000Y-97105000I1000000J0D01*
G01*
%TO.C,Q3*%
X67598000Y-70584000D02*
X72239000Y-70584000D01*
X67598000Y-73853000D02*
X69108000Y-73853000D01*
X67598000Y-77554000D02*
X69108000Y-77554000D01*
X67598000Y-80824000D02*
X67598000Y-70584000D01*
X67598000Y-80824000D02*
X72239000Y-80824000D01*
X69108000Y-80824000D02*
X69108000Y-70584000D01*
X72239000Y-80824000D02*
X72239000Y-70584000D01*
%TO.C,330*%
X99412000Y-51432000D02*
X99412000Y-55272000D01*
X99412000Y-55272000D02*
X101252000Y-55272000D01*
X100332000Y-50482000D02*
X100332000Y-51432000D01*
X100332000Y-56222000D02*
X100332000Y-55272000D01*
X101252000Y-51432000D02*
X99412000Y-51432000D01*
X101252000Y-55272000D02*
X101252000Y-51432000D01*
%TO.C,Q1*%
X120297000Y-81760000D02*
X120297000Y-92000000D01*
X123428000Y-81760000D02*
X123428000Y-92000000D01*
X124938000Y-81760000D02*
X120297000Y-81760000D01*
X124938000Y-81760000D02*
X124938000Y-92000000D01*
X124938000Y-85030000D02*
X123428000Y-85030000D01*
X124938000Y-88731000D02*
X123428000Y-88731000D01*
X124938000Y-92000000D02*
X120297000Y-92000000D01*
%TO.C,Alarm*%
X85600000Y-97802000D02*
X85600000Y-105422000D01*
X85600000Y-99072000D02*
X95760000Y-99072000D01*
X85600000Y-105422000D02*
X95760000Y-105422000D01*
X95760000Y-97802000D02*
X85600000Y-97802000D01*
X95760000Y-105422000D02*
X95760000Y-97802000D01*
%TO.C,U8*%
X109162000Y-61868000D02*
X109162000Y-63518000D01*
X109162000Y-65518000D02*
X109162000Y-67168000D01*
X109162000Y-67168000D02*
X114362000Y-67168000D01*
X114362000Y-61868000D02*
X109162000Y-61868000D01*
X114362000Y-67168000D02*
X114362000Y-61868000D01*
X109162000Y-63518000D02*
G75*
G02*
X109162000Y-65518000I0J-1000000D01*
G01*
%TO.C,D5*%
X104332000Y-74139000D02*
X104176000Y-74139000D01*
X106648000Y-74139000D02*
X106492000Y-74139000D01*
X104332163Y-76740130D02*
G75*
G02*
X104332000Y-74658039I1079837J1041130D01*
G01*
X104333392Y-77371335D02*
G75*
G02*
X104176484Y-74139000I1078608J1672335D01*
G01*
X106492000Y-74658039D02*
G75*
G02*
X106491837Y-76740130I-1080000J-1040961D01*
G01*
X106647516Y-74139000D02*
G75*
G02*
X106490608Y-77371335I-1235516J-1560000D01*
G01*
%TO.C,330*%
X92300000Y-73784000D02*
X92300000Y-77624000D01*
X92300000Y-77624000D02*
X94140000Y-77624000D01*
X93220000Y-72834000D02*
X93220000Y-73784000D01*
X93220000Y-78574000D02*
X93220000Y-77624000D01*
X94140000Y-73784000D02*
X92300000Y-73784000D01*
X94140000Y-77624000D02*
X94140000Y-73784000D01*
%TO.C,U1*%
X109162000Y-84220000D02*
X109162000Y-85870000D01*
X109162000Y-87870000D02*
X109162000Y-89520000D01*
X109162000Y-89520000D02*
X114362000Y-89520000D01*
X114362000Y-84220000D02*
X109162000Y-84220000D01*
X114362000Y-89520000D02*
X114362000Y-84220000D01*
X109162000Y-85870000D02*
G75*
G02*
X109162000Y-87870000I0J-1000000D01*
G01*
%TO.C,1K*%
X75028000Y-62608000D02*
X75028000Y-66448000D01*
X75028000Y-66448000D02*
X76868000Y-66448000D01*
X75948000Y-61658000D02*
X75948000Y-62608000D01*
X75948000Y-67398000D02*
X75948000Y-66448000D01*
X76868000Y-62608000D02*
X75028000Y-62608000D01*
X76868000Y-66448000D02*
X76868000Y-62608000D01*
%TO.C,330*%
X99412000Y-84960000D02*
X99412000Y-88800000D01*
X99412000Y-88800000D02*
X101252000Y-88800000D01*
X100332000Y-84010000D02*
X100332000Y-84960000D01*
X100332000Y-89750000D02*
X100332000Y-88800000D01*
X101252000Y-84960000D02*
X99412000Y-84960000D01*
X101252000Y-88800000D02*
X101252000Y-84960000D01*
%TO.C,Mag1*%
X125986000Y-81800000D02*
X125986000Y-91960000D01*
X125986000Y-91960000D02*
X133606000Y-91960000D01*
X127256000Y-91960000D02*
X127256000Y-81800000D01*
X133606000Y-81800000D02*
X125986000Y-81800000D01*
X133606000Y-91960000D02*
X133606000Y-81800000D01*
%TO.C,Q7*%
X120297000Y-59408000D02*
X120297000Y-69648000D01*
X123428000Y-59408000D02*
X123428000Y-69648000D01*
X124938000Y-59408000D02*
X120297000Y-59408000D01*
X124938000Y-59408000D02*
X124938000Y-69648000D01*
X124938000Y-62678000D02*
X123428000Y-62678000D01*
X124938000Y-66379000D02*
X123428000Y-66379000D01*
X124938000Y-69648000D02*
X120297000Y-69648000D01*
%TO.C,D7*%
X86904000Y-66093000D02*
X87060000Y-66093000D01*
X89220000Y-66093000D02*
X89376000Y-66093000D01*
X86904484Y-66093000D02*
G75*
G02*
X87061392Y-62860665I1235516J1560000D01*
G01*
X87060000Y-65573961D02*
G75*
G02*
X87060163Y-63491870I1080000J1040961D01*
G01*
X89218608Y-62860665D02*
G75*
G02*
X89375516Y-66093000I-1078608J-1672335D01*
G01*
X89219837Y-63491870D02*
G75*
G02*
X89220000Y-65573961I-1079837J-1041130D01*
G01*
%TO.C,Q5*%
X59144000Y-92612500D02*
X59144000Y-97253500D01*
X59144000Y-92612500D02*
X69384000Y-92612500D01*
X59144000Y-94122500D02*
X69384000Y-94122500D01*
X59144000Y-97253500D02*
X69384000Y-97253500D01*
X62414000Y-92612500D02*
X62414000Y-94122500D01*
X66115000Y-92612500D02*
X66115000Y-94122500D01*
X69384000Y-92612500D02*
X69384000Y-97253500D01*
%TO.C,Power*%
X96776000Y-97802000D02*
X96776000Y-105422000D01*
X96776000Y-99072000D02*
X106936000Y-99072000D01*
X96776000Y-105422000D02*
X106936000Y-105422000D01*
X106936000Y-97802000D02*
X96776000Y-97802000D01*
X106936000Y-105422000D02*
X106936000Y-97802000D01*
%TO.C,D2*%
X104332000Y-85315000D02*
X104176000Y-85315000D01*
X106648000Y-85315000D02*
X106492000Y-85315000D01*
X104332163Y-87916130D02*
G75*
G02*
X104332000Y-85834039I1079837J1041130D01*
G01*
X104333392Y-88547335D02*
G75*
G02*
X104176484Y-85315000I1078608J1672335D01*
G01*
X106492000Y-85834039D02*
G75*
G02*
X106491837Y-87916130I-1080000J-1040961D01*
G01*
X106647516Y-85315000D02*
G75*
G02*
X106490608Y-88547335I-1235516J-1560000D01*
G01*
%TO.C,Q6*%
X67598000Y-59408000D02*
X72239000Y-59408000D01*
X67598000Y-62677000D02*
X69108000Y-62677000D01*
X67598000Y-66378000D02*
X69108000Y-66378000D01*
X67598000Y-69648000D02*
X67598000Y-59408000D01*
X67598000Y-69648000D02*
X72239000Y-69648000D01*
X69108000Y-69648000D02*
X69108000Y-59408000D01*
X72239000Y-69648000D02*
X72239000Y-59408000D01*
%TO.C,Q8*%
X67598000Y-81760000D02*
X72239000Y-81760000D01*
X67598000Y-85029000D02*
X69108000Y-85029000D01*
X67598000Y-88730000D02*
X69108000Y-88730000D01*
X67598000Y-92000000D02*
X67598000Y-81760000D01*
X67598000Y-92000000D02*
X72239000Y-92000000D01*
X69108000Y-92000000D02*
X69108000Y-81760000D01*
X72239000Y-92000000D02*
X72239000Y-81760000D01*
%TO.C,330*%
X99412000Y-73784000D02*
X99412000Y-77624000D01*
X99412000Y-77624000D02*
X101252000Y-77624000D01*
X100332000Y-72834000D02*
X100332000Y-73784000D01*
X100332000Y-78574000D02*
X100332000Y-77624000D01*
X101252000Y-73784000D02*
X99412000Y-73784000D01*
X101252000Y-77624000D02*
X101252000Y-73784000D01*
%TO.C,U2*%
X109162000Y-50692000D02*
X109162000Y-52342000D01*
X109162000Y-54342000D02*
X109162000Y-55992000D01*
X109162000Y-55992000D02*
X114362000Y-55992000D01*
X114362000Y-50692000D02*
X109162000Y-50692000D01*
X114362000Y-55992000D02*
X114362000Y-50692000D01*
X109162000Y-52342000D02*
G75*
G02*
X109162000Y-54342000I0J-1000000D01*
G01*
%TO.C,Mag3*%
X125986000Y-59448000D02*
X125986000Y-69608000D01*
X125986000Y-69608000D02*
X133606000Y-69608000D01*
X127256000Y-69608000D02*
X127256000Y-59448000D01*
X133606000Y-59448000D02*
X125986000Y-59448000D01*
X133606000Y-69608000D02*
X133606000Y-59448000D01*
%TO.C,U4*%
X123152000Y-92612500D02*
X123152000Y-97253500D01*
X123152000Y-92612500D02*
X133392000Y-92612500D01*
X123152000Y-94122500D02*
X133392000Y-94122500D01*
X123152000Y-97253500D02*
X133392000Y-97253500D01*
X126422000Y-92612500D02*
X126422000Y-94122500D01*
X130123000Y-92612500D02*
X130123000Y-94122500D01*
X133392000Y-92612500D02*
X133392000Y-97253500D01*
%TO.C,D8*%
X104332000Y-62963000D02*
X104176000Y-62963000D01*
X106648000Y-62963000D02*
X106492000Y-62963000D01*
X104332163Y-65564130D02*
G75*
G02*
X104332000Y-63482039I1079837J1041130D01*
G01*
X104333392Y-66195335D02*
G75*
G02*
X104176484Y-62963000I1078608J1672335D01*
G01*
X106492000Y-63482039D02*
G75*
G02*
X106491837Y-65564130I-1080000J-1040961D01*
G01*
X106647516Y-62963000D02*
G75*
G02*
X106490608Y-66195335I-1235516J-1560000D01*
G01*
%TO.C,Mag2*%
X125986000Y-70624000D02*
X125986000Y-80784000D01*
X125986000Y-80784000D02*
X133606000Y-80784000D01*
X127256000Y-80784000D02*
X127256000Y-70624000D01*
X133606000Y-70624000D02*
X125986000Y-70624000D01*
X133606000Y-80784000D02*
X133606000Y-70624000D01*
%TO.C,Q9*%
X67598000Y-48232000D02*
X72239000Y-48232000D01*
X67598000Y-51501000D02*
X69108000Y-51501000D01*
X67598000Y-55202000D02*
X69108000Y-55202000D01*
X67598000Y-58472000D02*
X67598000Y-48232000D01*
X67598000Y-58472000D02*
X72239000Y-58472000D01*
X69108000Y-58472000D02*
X69108000Y-48232000D01*
X72239000Y-58472000D02*
X72239000Y-48232000D01*
%TO.C,D1*%
X102336000Y-92517500D02*
X103636000Y-92517500D01*
X102336000Y-93817500D02*
X102336000Y-92517500D01*
X102536000Y-92717500D02*
X121736000Y-92717500D01*
X102536000Y-96317500D02*
X102536000Y-92717500D01*
X121736000Y-92717500D02*
X121736000Y-96317500D01*
X121736000Y-96317500D02*
X102536000Y-96317500D01*
%TO.C,1K*%
X75028000Y-73784000D02*
X75028000Y-77624000D01*
X75028000Y-77624000D02*
X76868000Y-77624000D01*
X75948000Y-72834000D02*
X75948000Y-73784000D01*
X75948000Y-78574000D02*
X75948000Y-77624000D01*
X76868000Y-73784000D02*
X75028000Y-73784000D01*
X76868000Y-77624000D02*
X76868000Y-73784000D01*
%TO.C,330*%
X82222000Y-96532000D02*
X83172000Y-96532000D01*
X83172000Y-95612000D02*
X83172000Y-97452000D01*
X83172000Y-97452000D02*
X87012000Y-97452000D01*
X87012000Y-95612000D02*
X83172000Y-95612000D01*
X87012000Y-97452000D02*
X87012000Y-95612000D01*
X87962000Y-96532000D02*
X87012000Y-96532000D01*
%TO.C,Q2*%
X120297000Y-48232000D02*
X120297000Y-58472000D01*
X123428000Y-48232000D02*
X123428000Y-58472000D01*
X124938000Y-48232000D02*
X120297000Y-48232000D01*
X124938000Y-48232000D02*
X124938000Y-58472000D01*
X124938000Y-51502000D02*
X123428000Y-51502000D01*
X124938000Y-55203000D02*
X123428000Y-55203000D01*
X124938000Y-58472000D02*
X120297000Y-58472000D01*
%TO.C,D9*%
X86904000Y-88445000D02*
X87060000Y-88445000D01*
X89220000Y-88445000D02*
X89376000Y-88445000D01*
X86904484Y-88445000D02*
G75*
G02*
X87061392Y-85212665I1235516J1560000D01*
G01*
X87060000Y-87925961D02*
G75*
G02*
X87060163Y-85843870I1080000J1040961D01*
G01*
X89218608Y-85212665D02*
G75*
G02*
X89375516Y-88445000I-1078608J-1672335D01*
G01*
X89219837Y-85843870D02*
G75*
G02*
X89220000Y-87925961I-1079837J-1041130D01*
G01*
%TO.C,1K*%
X115668000Y-84960000D02*
X115668000Y-88800000D01*
X115668000Y-88800000D02*
X117508000Y-88800000D01*
X116588000Y-84010000D02*
X116588000Y-84960000D01*
X116588000Y-89750000D02*
X116588000Y-88800000D01*
X117508000Y-84960000D02*
X115668000Y-84960000D01*
X117508000Y-88800000D02*
X117508000Y-84960000D01*
%TO.C,Extra1*%
X58930000Y-81800000D02*
X58930000Y-91960000D01*
X58930000Y-91960000D02*
X66550000Y-91960000D01*
X65280000Y-81800000D02*
X65280000Y-91960000D01*
X66550000Y-81800000D02*
X58930000Y-81800000D01*
X66550000Y-91960000D02*
X66550000Y-81800000D01*
%TO.C,U7*%
X79190000Y-61888000D02*
X79190000Y-67188000D01*
X79190000Y-67188000D02*
X84390000Y-67188000D01*
X84390000Y-61888000D02*
X79190000Y-61888000D01*
X84390000Y-63538000D02*
X84390000Y-61888000D01*
X84390000Y-67188000D02*
X84390000Y-65538000D01*
X84390000Y-65538000D02*
G75*
G02*
X84390000Y-63538000I0J1000000D01*
G01*
%TO.C,U10*%
X79190000Y-50712000D02*
X79190000Y-56012000D01*
X79190000Y-56012000D02*
X84390000Y-56012000D01*
X84390000Y-50712000D02*
X79190000Y-50712000D01*
X84390000Y-52362000D02*
X84390000Y-50712000D01*
X84390000Y-56012000D02*
X84390000Y-54362000D01*
X84390000Y-54362000D02*
G75*
G02*
X84390000Y-52362000I0J1000000D01*
G01*
%TO.C,D4*%
X86904000Y-77269000D02*
X87060000Y-77269000D01*
X89220000Y-77269000D02*
X89376000Y-77269000D01*
X86904484Y-77269000D02*
G75*
G02*
X87061392Y-74036665I1235516J1560000D01*
G01*
X87060000Y-76749961D02*
G75*
G02*
X87060163Y-74667870I1080000J1040961D01*
G01*
X89218608Y-74036665D02*
G75*
G02*
X89375516Y-77269000I-1078608J-1672335D01*
G01*
X89219837Y-74667870D02*
G75*
G02*
X89220000Y-76749961I-1079837J-1041130D01*
G01*
%TO.C,D6*%
X74642000Y-93772000D02*
X74642000Y-93928000D01*
X74642000Y-96088000D02*
X74642000Y-96244000D01*
X74642000Y-93772484D02*
G75*
G02*
X77874335Y-93929392I1560000J-1235516D01*
G01*
X75161039Y-93928000D02*
G75*
G02*
X77243130Y-93928163I1040961J-1080000D01*
G01*
X77243130Y-96087837D02*
G75*
G02*
X75161039Y-96088000I-1041130J1079837D01*
G01*
X77874335Y-96086608D02*
G75*
G02*
X74642000Y-96243516I-1672335J1078608D01*
G01*
%TO.C,1K*%
X115668000Y-51432000D02*
X115668000Y-55272000D01*
X115668000Y-55272000D02*
X117508000Y-55272000D01*
X116588000Y-50482000D02*
X116588000Y-51432000D01*
X116588000Y-56222000D02*
X116588000Y-55272000D01*
X117508000Y-51432000D02*
X115668000Y-51432000D01*
X117508000Y-55272000D02*
X117508000Y-51432000D01*
%TO.C,330*%
X92300000Y-84960000D02*
X92300000Y-88800000D01*
X92300000Y-88800000D02*
X94140000Y-88800000D01*
X93220000Y-84010000D02*
X93220000Y-84960000D01*
X93220000Y-89750000D02*
X93220000Y-88800000D01*
X94140000Y-84960000D02*
X92300000Y-84960000D01*
X94140000Y-88800000D02*
X94140000Y-84960000D01*
X92300000Y-51432000D02*
X92300000Y-55272000D01*
X92300000Y-55272000D02*
X94140000Y-55272000D01*
X93220000Y-50482000D02*
X93220000Y-51432000D01*
X93220000Y-56222000D02*
X93220000Y-55272000D01*
X94140000Y-51432000D02*
X92300000Y-51432000D01*
X94140000Y-55272000D02*
X94140000Y-51432000D01*
%TO.C,U3*%
X79190000Y-73064000D02*
X79190000Y-78364000D01*
X79190000Y-78364000D02*
X84390000Y-78364000D01*
X84390000Y-73064000D02*
X79190000Y-73064000D01*
X84390000Y-74714000D02*
X84390000Y-73064000D01*
X84390000Y-78364000D02*
X84390000Y-76714000D01*
X84390000Y-76714000D02*
G75*
G02*
X84390000Y-74714000I0J1000000D01*
G01*
%TO.C,Q4*%
X120297000Y-70584000D02*
X120297000Y-80824000D01*
X123428000Y-70584000D02*
X123428000Y-80824000D01*
X124938000Y-70584000D02*
X120297000Y-70584000D01*
X124938000Y-70584000D02*
X124938000Y-80824000D01*
X124938000Y-73854000D02*
X123428000Y-73854000D01*
X124938000Y-77555000D02*
X123428000Y-77555000D01*
X124938000Y-80824000D02*
X120297000Y-80824000D01*
%TO.C,330*%
X99412000Y-62608000D02*
X99412000Y-66448000D01*
X99412000Y-66448000D02*
X101252000Y-66448000D01*
X100332000Y-61658000D02*
X100332000Y-62608000D01*
X100332000Y-67398000D02*
X100332000Y-66448000D01*
X101252000Y-62608000D02*
X99412000Y-62608000D01*
X101252000Y-66448000D02*
X101252000Y-62608000D01*
%TO.C,1K*%
X115668000Y-62608000D02*
X115668000Y-66448000D01*
X115668000Y-66448000D02*
X117508000Y-66448000D01*
X116588000Y-61658000D02*
X116588000Y-62608000D01*
X116588000Y-67398000D02*
X116588000Y-66448000D01*
X117508000Y-62608000D02*
X115668000Y-62608000D01*
X117508000Y-66448000D02*
X117508000Y-62608000D01*
%TO.C,330*%
X92300000Y-62608000D02*
X92300000Y-66448000D01*
X92300000Y-66448000D02*
X94140000Y-66448000D01*
X93220000Y-61658000D02*
X93220000Y-62608000D01*
X93220000Y-67398000D02*
X93220000Y-66448000D01*
X94140000Y-62608000D02*
X92300000Y-62608000D01*
X94140000Y-66448000D02*
X94140000Y-62608000D01*
%TO.C,Extra4*%
X58930000Y-48272000D02*
X58930000Y-58432000D01*
X58930000Y-58432000D02*
X66550000Y-58432000D01*
X65280000Y-48272000D02*
X65280000Y-58432000D01*
X66550000Y-48272000D02*
X58930000Y-48272000D01*
X66550000Y-58432000D02*
X66550000Y-48272000D01*
%TO.C,1K*%
X115668000Y-73784000D02*
X115668000Y-77624000D01*
X115668000Y-77624000D02*
X117508000Y-77624000D01*
X116588000Y-72834000D02*
X116588000Y-73784000D01*
X116588000Y-78574000D02*
X116588000Y-77624000D01*
X117508000Y-73784000D02*
X115668000Y-73784000D01*
X117508000Y-77624000D02*
X117508000Y-73784000D01*
%TO.C,Extra2*%
X58930000Y-70624000D02*
X58930000Y-80784000D01*
X58930000Y-80784000D02*
X66550000Y-80784000D01*
X65280000Y-70624000D02*
X65280000Y-80784000D01*
X66550000Y-70624000D02*
X58930000Y-70624000D01*
X66550000Y-80784000D02*
X66550000Y-70624000D01*
%TO.C,1K*%
X75028000Y-51432000D02*
X75028000Y-55272000D01*
X75028000Y-55272000D02*
X76868000Y-55272000D01*
X75948000Y-50482000D02*
X75948000Y-51432000D01*
X75948000Y-56222000D02*
X75948000Y-55272000D01*
X76868000Y-51432000D02*
X75028000Y-51432000D01*
X76868000Y-55272000D02*
X76868000Y-51432000D01*
%TO.C,Extra3*%
X58930000Y-59448000D02*
X58930000Y-69608000D01*
X58930000Y-69608000D02*
X66550000Y-69608000D01*
X65280000Y-59448000D02*
X65280000Y-69608000D01*
X66550000Y-59448000D02*
X58930000Y-59448000D01*
X66550000Y-69608000D02*
X66550000Y-59448000D01*
%TO.C,1K*%
X82222000Y-93484000D02*
X83172000Y-93484000D01*
X83172000Y-92564000D02*
X83172000Y-94404000D01*
X83172000Y-94404000D02*
X87012000Y-94404000D01*
X87012000Y-92564000D02*
X83172000Y-92564000D01*
X87012000Y-94404000D02*
X87012000Y-92564000D01*
X87962000Y-93484000D02*
X87012000Y-93484000D01*
%TO.C,From_Control*%
X82384000Y-40262000D02*
X82384000Y-46232000D01*
X82384000Y-46232000D02*
X110004000Y-46232000D01*
X82394000Y-43972000D02*
X83144000Y-43972000D01*
X82394000Y-45472000D02*
X82394000Y-46222000D01*
X82394000Y-46222000D02*
X84194000Y-46222000D01*
X83144000Y-41022000D02*
X96194000Y-41022000D01*
X83144000Y-43972000D02*
X83144000Y-41022000D01*
X84194000Y-45472000D02*
X82394000Y-45472000D01*
X84194000Y-46222000D02*
X84194000Y-45472000D01*
X85694000Y-45472000D02*
X85694000Y-46222000D01*
X85694000Y-46222000D02*
X106694000Y-46222000D01*
X106694000Y-45472000D02*
X85694000Y-45472000D01*
X106694000Y-46222000D02*
X106694000Y-45472000D01*
X108194000Y-45472000D02*
X108194000Y-46222000D01*
X108194000Y-46222000D02*
X109994000Y-46222000D01*
X109044000Y-46522000D02*
X110294000Y-46522000D01*
X109244000Y-41022000D02*
X96194000Y-41022000D01*
X109244000Y-43972000D02*
X109244000Y-41022000D01*
X109994000Y-43972000D02*
X109244000Y-43972000D01*
X109994000Y-45472000D02*
X108194000Y-45472000D01*
X109994000Y-46222000D02*
X109994000Y-45472000D01*
X110004000Y-40262000D02*
X82384000Y-40262000D01*
X110004000Y-46232000D02*
X110004000Y-40262000D01*
X110294000Y-46522000D02*
X110294000Y-45272000D01*
%TO.C,D10*%
X86904000Y-54917000D02*
X87060000Y-54917000D01*
X89220000Y-54917000D02*
X89376000Y-54917000D01*
X86904484Y-54917000D02*
G75*
G02*
X87061392Y-51684665I1235516J1560000D01*
G01*
X87060000Y-54397961D02*
G75*
G02*
X87060163Y-52315870I1080000J1040961D01*
G01*
X89218608Y-51684665D02*
G75*
G02*
X89375516Y-54917000I-1078608J-1672335D01*
G01*
X89219837Y-52315870D02*
G75*
G02*
X89220000Y-54397961I-1079837J-1041130D01*
G01*
%TO.C,1K*%
X75028000Y-84960000D02*
X75028000Y-88800000D01*
X75028000Y-88800000D02*
X76868000Y-88800000D01*
X75948000Y-84010000D02*
X75948000Y-84960000D01*
X75948000Y-89750000D02*
X75948000Y-88800000D01*
X76868000Y-84960000D02*
X75028000Y-84960000D01*
X76868000Y-88800000D02*
X76868000Y-84960000D01*
%TO.C,U9*%
X79190000Y-84240000D02*
X79190000Y-89540000D01*
X79190000Y-89540000D02*
X84390000Y-89540000D01*
X84390000Y-84240000D02*
X79190000Y-84240000D01*
X84390000Y-85890000D02*
X84390000Y-84240000D01*
X84390000Y-89540000D02*
X84390000Y-87890000D01*
X84390000Y-87890000D02*
G75*
G02*
X84390000Y-85890000I0J1000000D01*
G01*
%TO.C,D3*%
X104332000Y-51787000D02*
X104176000Y-51787000D01*
X106648000Y-51787000D02*
X106492000Y-51787000D01*
X104332163Y-54388130D02*
G75*
G02*
X104332000Y-52306039I1079837J1041130D01*
G01*
X104333392Y-55019335D02*
G75*
G02*
X104176484Y-51787000I1078608J1672335D01*
G01*
X106492000Y-52306039D02*
G75*
G02*
X106491837Y-54388130I-1080000J-1040961D01*
G01*
X106647516Y-51787000D02*
G75*
G02*
X106490608Y-55019335I-1235516J-1560000D01*
G01*
%TO.C,U5*%
X109162000Y-73044000D02*
X109162000Y-74694000D01*
X109162000Y-76694000D02*
X109162000Y-78344000D01*
X109162000Y-78344000D02*
X114362000Y-78344000D01*
X114362000Y-73044000D02*
X109162000Y-73044000D01*
X114362000Y-78344000D02*
X114362000Y-73044000D01*
X109162000Y-74694000D02*
G75*
G02*
X109162000Y-76694000I0J-1000000D01*
G01*
%TD*%
M02*
